<?xml version="1.0" encoding="utf-8"?>
<!-- Generator: Adobe Illustrator 19.0.0, SVG Export Plug-In . SVG Version: 6.00 Build 0)  -->
<svg version="1.1" id="Layer_1" xmlns="http://www.w3.org/2000/svg" xmlns:xlink="http://www.w3.org/1999/xlink" x="0px" y="0px"
	 viewBox="0 0 428 400" style="enable-background:new 0 0 428 400;" xml:space="preserve">
<style type="text/css">
	.st0{fill:#262D4A;}
	.st1{fill:#FAAF3B;}
	.st2{fill:#9E035D;}
	.st3{fill:#FDA134;}
	.st4{fill:#E95D26;}
	.st5{fill:#E95C24;}
	.st6{fill:#86E9F0;}
	.st7{fill:#F0BF05;}
	.st8{fill:#F9B03E;}
	.st9{fill:#FAF4E8;}
	.st10{fill:#EAD0E2;}
	.st11{fill:#E3E4E6;}
	.st12{fill:#FDFDFD;}
	.st13{fill:#EA5C24;}
	.st14{fill:#343333;}
	.st15{fill:#FCFAF4;}
	.st16{fill:#C61532;}
	.st17{fill:#A80005;}
	.st18{fill:#FBFBF9;}
	.st19{fill:#2A2827;}
	.st20{fill:#800805;}
	.st21{fill:#DC5429;}
	.st22{fill:#343432;}
	.st23{fill:#FCFAFC;}
	.st24{fill:#3C3730;}
	.st25{fill:#FEFEFD;}
	.st26{fill:#090403;}
	.st27{fill:#F5C21B;}
	.st28{fill:#E75B24;}
	.st29{fill:#F5EBF2;}
</style>
<g id="XMLID_15_">
	<circle id="XMLID_17_" class="st0" cx="40.8" cy="39.3" r="6.3"/>
	<circle id="XMLID_16_" class="st0" cx="64.6" cy="39.3" r="6.3"/>
	<circle id="XMLID_53_" class="st0" cx="40.8" cy="63" r="6.3"/>
	<circle id="XMLID_50_" class="st0" cx="64.6" cy="63" r="6.3"/>
	<circle id="XMLID_57_" class="st0" cx="40.8" cy="86.7" r="6.3"/>
	<circle id="XMLID_54_" class="st0" cx="64.6" cy="86.7" r="6.3"/>
	<circle id="XMLID_62_" class="st0" cx="40.8" cy="112.8" r="6.3"/>
	<circle id="XMLID_61_" class="st0" cx="64.6" cy="112.8" r="6.3"/>
	<circle id="XMLID_65_" class="st0" cx="40.8" cy="136.5" r="6.3"/>
	<circle id="XMLID_63_" class="st0" cx="64.6" cy="136.5" r="6.3"/>
	<circle id="XMLID_73_" class="st0" cx="40.8" cy="162.6" r="6.3"/>
	<circle id="XMLID_67_" class="st0" cx="64.6" cy="162.6" r="6.3"/>
	<circle id="XMLID_79_" class="st0" cx="40.8" cy="186.3" r="6.3"/>
	<circle id="XMLID_76_" class="st0" cx="64.6" cy="186.3" r="6.3"/>
	<circle id="XMLID_100_" class="st0" cx="90.6" cy="39.3" r="6.3"/>
	<circle id="XMLID_97_" class="st0" cx="90.6" cy="63" r="6.3"/>
	<circle id="XMLID_94_" class="st0" cx="90.6" cy="86.7" r="6.3"/>
	<circle id="XMLID_91_" class="st0" cx="90.6" cy="112.8" r="6.3"/>
	<circle id="XMLID_88_" class="st0" cx="90.6" cy="136.5" r="6.3"/>
	<circle id="XMLID_85_" class="st0" cx="90.6" cy="162.6" r="6.3"/>
	<circle id="XMLID_82_" class="st0" cx="90.6" cy="186.3" r="6.3"/>
	<circle id="XMLID_113_" class="st0" cx="114.4" cy="39.3" r="6.3"/>
	<circle id="XMLID_112_" class="st0" cx="114.4" cy="63" r="6.3"/>
	<circle id="XMLID_111_" class="st0" cx="114.4" cy="86.7" r="6.3"/>
	<circle id="XMLID_110_" class="st0" cx="114.4" cy="112.8" r="6.3"/>
	<circle id="XMLID_109_" class="st0" cx="114.4" cy="136.5" r="6.3"/>
	<circle id="XMLID_106_" class="st0" cx="114.4" cy="162.6" r="6.3"/>
	<circle id="XMLID_103_" class="st0" cx="114.4" cy="186.3" r="6.3"/>
	<circle id="XMLID_134_" class="st0" cx="140.4" cy="39.3" r="6.3"/>
	<circle id="XMLID_133_" class="st0" cx="140.4" cy="63" r="6.3"/>
	<circle id="XMLID_132_" class="st0" cx="140.4" cy="86.7" r="6.3"/>
	<circle id="XMLID_131_" class="st0" cx="140.4" cy="112.8" r="6.3"/>
	<circle id="XMLID_130_" class="st0" cx="140.4" cy="136.5" r="6.3"/>
	<circle id="XMLID_126_" class="st0" cx="140.4" cy="162.6" r="6.3"/>
	<circle id="XMLID_114_" class="st0" cx="140.4" cy="186.3" r="6.3"/>
	<circle id="XMLID_159_" class="st0" cx="164.2" cy="39.3" r="6.3"/>
	<circle id="XMLID_158_" class="st0" cx="164.2" cy="63" r="6.3"/>
	<circle id="XMLID_157_" class="st0" cx="164.2" cy="86.7" r="6.3"/>
	<circle id="XMLID_156_" class="st0" cx="164.2" cy="112.8" r="6.3"/>
	<circle id="XMLID_155_" class="st0" cx="164.2" cy="136.5" r="6.3"/>
	<circle id="XMLID_151_" class="st0" cx="164.2" cy="162.6" r="6.3"/>
	<circle id="XMLID_135_" class="st0" cx="164.2" cy="186.3" r="6.3"/>
	<circle id="XMLID_197_" class="st0" cx="187.9" cy="39.3" r="6.3"/>
	<circle id="XMLID_196_" class="st0" cx="187.9" cy="63" r="6.3"/>
	<circle id="XMLID_195_" class="st0" cx="187.9" cy="86.7" r="6.3"/>
	<circle id="XMLID_194_" class="st0" cx="187.9" cy="112.8" r="6.3"/>
	<circle id="XMLID_193_" class="st0" cx="187.9" cy="136.5" r="6.3"/>
	<circle id="XMLID_189_" class="st0" cx="187.9" cy="162.6" r="6.3"/>
	<circle id="XMLID_160_" class="st0" cx="187.9" cy="186.3" r="6.3"/>
</g>
<g id="XMLID_13_">
	<path id="XMLID_1471_" class="st1" d="M267.8,79.1c7,3.4,14.3,6.3,21,10.1c17.7,10.1,32.6,23.5,44.8,40c0.7,0.9,1.2,1.8,1.8,2.8
		c-6.1,1.9-12.5,3.1-18.2,5.8c-20.9,9.7-34.5,25.4-38.2,48.7c-0.5,3.3-0.4,6.6-0.6,9.9c0.3,0,0.6,0,0.9,0c0-1,0-2,0-2.9
		c0.5-9.9,3-19.2,8.3-27.6c3.7-5.9,9-10.3,14.2-14.8c10.3-9,22.3-14.4,35.9-16.2c0.2,0.4,0.4,0.8,0.6,1.3c-0.4,0.1-0.8,0.3-1.3,0.4
		c-9.6,1.5-18.5,4.8-26.5,10.2c-18.4,12.4-28.4,29.6-28.7,52c-0.1,7.6,1.6,14.9,4.4,21.9c-0.2,0.2-0.3,0.3-0.5,0.5
		c-2.2-2.3-2.9-5.3-3.7-8.3c-1.3-4.9-3.1-9.6-4.9-14.9c-1.3,5-1.2,8.7,0.4,15c5.8,22.4,19.9,37.6,41,46.5c5.3,2.2,11.1,3.3,16.6,5
		c-11,22.9-27.5,41-48.6,54.8c-18.4,12-38.7,19.2-60.4,22.1c-13.4,1.8-26.9,1.7-40.3-0.2c-15.5-2.2-30.3-6.7-44.4-13.5
		c-0.4-6.5-1.5-12.9-3.8-19.1c-4.7-12.6-12.9-22.3-24.2-29.5c-10.2-6.5-21.5-9.7-33.6-10.3c-0.2-0.5-0.3-1-0.5-1.4
		c-12-23.6-16.2-48.5-12.7-74.7c2.1-15.8,7.1-30.6,14.9-44.5c14.5-25.7,35.5-44.6,62.2-57.2c4.2-2,8.7-3.5,13.1-5.2
		c0.6,0.8,1.4,1.4,1.8,2.3c2.5,6.9-0.9,13.1-6.4,16.9c-0.8,0.5-2,0.8-2.9,0.7c-1.7-0.2-3.4-0.8-5.3-1.3c1.6,5.3,5.5,8.2,10.3,10.2
		c0.2,0.1,0.3,0.3,0.5,0.4l0,0c1,1.6,2.1,3.1,3.1,4.7c4.4,6.8,10.9,9.6,18.7,9.5c6.7-0.1,13.2,0.7,19.1,4.1c0.4,0.2,0.7,0.5,1.1,0.7
		c0.1,0.1,0.2,0.2,0.4,0.2c0.5,0.3,0.9,0.5,1.4,0.8c0.3,0.3,0.7,0.6,1,1c0.5,1,1,2,1.4,3c-0.7,0.3-1.5,0.7-2.2,0.9
		c-5.8,2.1-11.6,4.1-17.4,6.2c-3.6,1.3-5.6,4-6.8,7.6c-4,11.4-5.9,23.3-8.4,35.2c-1,4.9-0.3,9.3,1.4,13.8c1.9,4.9,3.9,9.7,5.8,14.5
		c-4.1,0.3-8.2,0.2-12.2-1.1c-11.3-3.8-14.3-13.1-13.4-23.1c0.6-6.5,2-12.8,4.3-19c0.3-0.4,0.7-0.7,1-1.2c5.7-9,7.8-18.8,5.8-29.4
		c-2.1-11.3-9.3-18.5-18.9-23.9c-0.4-0.2-0.9-0.3-1.7-0.5c0.2,1,0.4,1.7,0.6,2.3c1.9,9,1.3,17.5-5.7,24.4c-3.3,3.3-6.7,6.4-10.1,9.6
		c-2.2,2.1-4.3,4.2-6.4,6.3c-0.7,0.5-1.4,0.8-1.9,1.4c-4.2,5.1-8.8,9.9-12.6,15.3c-6.5,9.5-8.7,20.3-6.5,31.5
		c2.4,12.5,9.7,21.6,21,27.3c11.2,5.6,23.2,7.1,35.6,4.8c6.4-1.2,12.5-3.4,17.7-7.5c2.9-2.3,5.3-5.2,7.9-7.9
		c0.9,1.6,1.7,3.4,2.7,4.9c0.4,0.6,1.4,0.9,2.1,1.3c0.4,0.6,0.7,1.2,1.2,1.8c1.4,1.9,2.8,3.8,4.2,5.7c0.5,9.2,0.9,18.4,1.4,27.5
		c0.4,8.1,0.9,16.1,1.4,24.2c0,0.5,0,0.9,0,1.4c-0.1,0.1-0.1,0.2,0,0.4c0,0.5,0,0.9,0,1.4c-0.8,0.3-1.6,0.6-2.3,0.9
		c-0.3-0.1-0.5-0.3-0.8-0.4c-7.2-0.8-11.6,5.8-9.5,12.6c0.1,0.5,1.1,1,1.7,1c1.9,0,3.8-0.2,5.7-0.4c0.5-0.1,0.9-0.1,1.4-0.2
		c0.3-0.1,0.6-0.1,0.9-0.2c15,0,29.9,0,44.9,0c2.6,0.3,5.1,0.5,7.7,0.9c1.5,0.2,2-0.4,2.4-1.8c1.5-6.1-2.7-12.9-10.6-11.8
		c-0.3,0-0.6,0-0.9,0c0-1-0.1-2.1-0.1-3.1c0.2-4.1,0.4-8.1,0.6-12.1c0.8-0.1,1.6-0.3,2.4-0.3c8.1,0,16.2,0,24.3,0
		c2.2,0,4.4,0,6.6-0.3c5.1-0.7,7.6-4.2,6.9-9.4c0-3.5,0-7.1,0-10.6c0-3.2,0-6.5,0.1-9.7c0-4-0.9-5.4-4.9-5.7
		c-4.2-0.4-8.5-0.3-12.7-0.4c0-1.3,0.1-2.6-0.1-3.9c-0.1-0.8-0.9-1.4-1.3-2.1c-0.1,0-0.2,0-0.3,0c-0.9,0-1.8,0-2.7,0
		c0.1-0.4,0.2-0.8,0.3-1.2c0-1.6,0.2-3.3,0.1-4.9c-0.1-1.6-0.6-3.1-1-4.7c1-0.1,2-0.2,3.1-0.4c0-1,0.1-1.8,0-2.7
		c-1.3-16.7-2.6-33.4-4.1-50.1c-0.5-5.5-1.1-11-2.2-16.4c-1-4.8-3.6-8.8-8.3-10.8c-4.2-1.8-8.4-3.4-12.7-5c-2.4-0.9-4.9-1.6-7.3-2.4
		c0.5-0.8,1-1.7,1.4-2.5c0.3-0.3,0.5-0.6,0.8-0.9c4.3-2.6,8.5-5.4,13.6-6c3.9-0.5,7.8-0.4,11.7-0.7c5.8-0.5,11.1-2.4,14.8-7.2
		c2-2.6,4-5.2,6-7.8c0.6-0.4,1.2-0.7,1.9-1.1c3.4-2,6-4.6,6.9-8.8c-0.6,0.3-1,0.4-1.4,0.6c-4,1.9-5.9,1.6-9-1.6
		c-1.3-1.4-2.7-2.8-3.4-4.5c-1.7-3.6-2.5-7.3-0.1-11c5.1,2.2,10.2,4.3,15.3,6.5c-1.1-1.2-2.4-2.2-3.8-2.9c-3.6-1.7-7.2-3.3-10.8-4.9
		C263.6,83.9,265.7,81.5,267.8,79.1z M277,94.7l0.1,0.1L277,94.7c-0.1,0-0.2-0.1-0.3-0.1C276.8,94.6,276.9,94.6,277,94.7z"/>
	<path id="XMLID_1465_" class="st2" d="M335,264.4c-5.6-1.6-11.3-2.7-16.6-5c-21.1-8.9-35.2-24.2-41-46.5c-1.6-6.2-1.7-10-0.4-15
		c1.8,5.3,3.5,10,4.9,14.9c0.8,3,1.6,6,3.7,8.3c1.1,2.2,2.2,4.4,3.3,6.7c0.2-0.1,0.4-0.2,0.7-0.3c-1.2-2.3-2.3-4.5-3.5-6.8
		c-2.7-7.1-4.5-14.4-4.4-21.9c0.3-22.4,10.3-39.6,28.7-52c8-5.4,17-8.7,26.5-10.2c0.4-0.1,0.8-0.2,1.3-0.4c1,0,1.9-0.1,2.9-0.1
		c17.7-1.6,34,2.3,48.1,13.1c20.3,15.5,29.2,36.2,24,61.5c-4.6,22.1-18.7,36.7-39.3,45.3c-8.7,3.7-18,4.9-27.4,5
		c-0.8-0.1-1.7-0.1-2.5-0.2c-2.4-0.2-4.7-0.5-7.1-0.7c-7.4-1.6-14.6-3.7-21.3-7.3c-0.3,0-0.6-0.1-0.9-0.1c0,0-0.1-0.1-0.1-0.1
		c0,0,0.1,0.1,0.1,0.1c0.3,0.2,0.5,0.4,0.8,0.6c6.5,4.2,13.8,6.2,21.4,7.4c2.4,0.3,4.7,0.5,7.1,0.8c0.8,0.1,1.6,0.3,2.3,0.4
		c1.2,0.3,2.4,0.8,3.6,1c5.2,0.7,10.1-0.6,15-1.8c19.3-4.8,34.8-14.8,44-33.1c6.3-12.5,9.3-25.6,6.8-39.5
		c-2.8-15.9-11.1-28.5-23.6-38.4c-16-12.6-34.2-17.6-54.4-14.9c-13.6,1.8-25.6,7.2-35.9,16.2c-5.1,4.5-10.4,8.9-14.2,14.8
		c-5.3,8.4-7.8,17.7-8.3,27.6c0,1,0,1.9,0,2.9c-0.3,0-0.6,0-0.9,0c0.2-3.3,0.1-6.6,0.6-9.9c3.7-23.3,17.3-39,38.2-48.7
		c5.7-2.7,12.1-3.9,18.2-5.8c9-1.3,18-1.4,27,0.3c25.5,4.6,49,22.8,54.9,51.6c6.6,31.8-10.7,57.3-31.1,70.2c-9.5,6-19.8,8.8-30.7,10
		c-3.6,0.4-7.2,0.8-10.7,1.3c-0.9-0.1-1.8-0.1-2.7-0.2C339.7,264.9,337.3,264.7,335,264.4z M392.4,199.9L392.4,199.9
		c-0.1-0.5-0.3-1-0.5-1.6c-1.1,0.8-2,1.5-2.9,2.1c-1-0.6-1.9-1.2-2.8-1.8c0.3-1.1,0.5-2.1,0.8-3.1c-2.1-0.7-4-1.3-6.2-2
		c-0.1,3.5-2.2,4.2-5,3.9c-0.5-0.9-0.9-1.7-1.5-2.8c-2,1-3.9,1.9-5.8,2.8c0.5,1.1,0.9,2,1.2,2.7c-1.6,2.7-3.6,3.6-6.2,1.4
		c-1,2.2-1.9,4-2.8,5.9c1.5,1,3.6,1,3.1,3.8c-0.5,2.8-2.8,1.2-4,2.4c0.2,1.9,0.5,4,0.7,5.5c1.9,0.4,3.3,0.7,4.7,1.2
		c0.1,0-0.3,1.5-0.5,2.3c-0.1,0.1-0.2,0.1-0.2,0.2c-0.5,0.4-1.1,0.8-1.7,1.2c1.9,1.8,3.4,3.2,5.3,5.1c0.8-1.2,1.4-2.2,1.9-2.9
		c3.6,0.5,2.2,2.7,2.1,4.6c2.1,0.5,4,1,6.1,1.5c0.4-1.2,0.7-2.3,1-3.2c1.2-0.1,2.3-0.3,3.5-0.4c0.5,1.1,1,2.1,1.6,3.3
		c2-0.9,3.9-1.7,6.2-2.6c-2.4-2.6-1.4-4.2,0.9-5.5c1,0.5,2,1.1,3,1.7c1.2-2,2.2-3.8,3.3-5.7c-2.2-1-4-2.1-2.1-4.6
		c0.9-0.1,1.7-0.1,2.6-0.2c0-2.2,0-4.3,0-6.5c-1.2,0-2.2,0-3.3,0c-0.5-1.1-0.9-2.2-1.3-3.2c0.9-0.8,1.6-1.5,2.6-2.4
		C394.8,201.9,393.6,200.9,392.4,199.9z M347.9,182.3c1.3-1.5,2.7-3,4.1-4.5c-2.7-2.5-5.2-4.9-7.8-7.4c-1.7,1.8-3.3,3.5-4.8,5
		c-2.4-0.9-4.5-1.6-6.8-2.5c0-1.9,0-3.9,0-5.8c-3.7,0-7.2,0-10.9,0c0,2,0,3.9,0,5.7c-2.4,0.8-4.7,1.6-7.1,2.4
		c-1.4-1.7-2.8-3.5-4.3-5.3c-2.9,2.3-5.6,4.5-8.4,6.7c1.5,1.9,2.9,3.6,4.2,5.3c-1.3,2-2.6,3.9-3.8,5.8c-2.2-0.7-4.3-1.4-6.5-2.2
		c-1.2,3.4-2.3,6.7-3.5,10.2c2.5,0.9,4.9,1.7,7.3,2.6c0,0.7-0.1,1.3,0,2c0.4,1.9-0.4,2.8-2.2,3.3c-1.6,0.4-3.1,1.2-4.9,1.8
		c1.3,3.4,2.5,6.7,3.8,10.1c2.3-0.9,4.4-1.6,6.5-2.4c1,1.5,2,2.9,2.9,4.3c-1.3,1.6-2.6,3.2-3.9,4.9c2.9,2.4,5.6,4.6,8.3,6.8
		c1.5-1.8,2.8-3.4,4-4.9c2.2,0.8,4.2,1.6,6.4,2.4c-0.1,2.1-0.2,4.3-0.3,6.6c3.6,0.2,7.1,0.3,10.9,0.5c0-2.4,0-4.6,0-6.7
		c2.2-0.7,4.2-1.3,6.2-1.9c1.3,1.8,2.5,3.6,3.8,5.4c3-2.1,5.9-4,8.8-6.1c-1.3-1.9-2.5-3.6-3.7-5.4c1.2-1.5,2.4-3,3.6-4.4
		c1.7,0.8,3.3,1.5,5,2.3c0.9-1.8,1.6-3.3,2.4-4.9c0.7-1.6,1.5-3.1,2.4-5.1c-5.5-0.5-6.5-3.8-5.5-8.3c0-0.1,0.1-0.3,0.2-0.6
		c1.8-0.5,3.8-1.1,5.8-1.7c-1-3.6-1.9-7-2.8-10.3c-2.2,0.6-4.1,1.1-6,1.5C350.2,185.8,349.1,184.1,347.9,182.3z M356.2,181.9
		c2-0.3,4.4-2.4,5.2,1.2c-0.6,0.8-1.3,1.7-2,2.7c1.6,1.3,3.2,2.6,4.8,3.9c2.6-2.8,2.6-2.8,5.9-1.3c0,1.1,0,2.4,0,3.7
		c2.1,0.1,4.1,0.2,5.7,0.3c1-1.6-0.5-3.4,1.7-4.3c2.7-1.2,3.1,1.2,4.5,2.5c1.7-1.2,3.3-2.3,5-3.4c-0.7-1.2-1.4-2.2-1.9-3.1
		c1-2.8,2.8-2.4,4.7-1.2c0.9-1.9,1.7-3.7,2.7-5.8c-3-0.6-4.1-2.1-3-4.9c1-0.3,2-0.7,3.2-1.1c-0.5-2-1-3.9-1.6-5.8
		c-1.8,0.1-3.5,1.5-4.8-1c-1.1-2.2,1.4-2.3,1.7-3.9c-0.6-0.8-1.5-1.4-2.2-2c-0.8-0.6-1.5-1.3-2.1-1.9c-1.7,0.7-2,3-4.6,2.3
		c-2.8-0.7-1.8-2.7-2.3-4.2c-2,0-3.9,0-5.9,0c-0.1,1.9,0.1,3.4-2.4,4.2c-2.8,0.9-2.8-1.9-4.5-2.4c-1.5,1.2-3,2.4-4.6,3.7
		c0.8,1.1,1.6,2.1,2.3,3.1c-1.6,2.9-1.6,2.9-5.8,2.2c-0.6,1.8-1.3,3.7-1.8,5.3c1.1,1.7,4,0.4,4.1,3c0.1,2.6-2.9,1.5-3.9,3.1
		C354.8,178.1,355.4,179.9,356.2,181.9z M289.7,228.4l-0.1-0.1l0,0.1L289.7,228.4z"/>
	<path id="XMLID_1460_" class="st3" d="M390.1,91.9c-5.9,4.5-12.5,7.4-19.8,8.5c-3.2,0.5-6.4,1.1-9.6,1.3
		c-21.3,1.4-46.9-13.4-51.2-40.4c-0.3-2,0-4.1,0-6.1c0.2-0.1,0.4-0.1,0.6-0.2c0.4,1.2,0.9,2.3,1.2,3.5c0.9,2.9,1.7,5.8,2.6,8.6
		c0.3,0.8,0.8,1.5,1.2,2.3c1.1,2.1,2.3,4.2,3.4,6.3c0.1-0.1,0.2-0.1,0.3-0.2c-1.1-2.2-2.1-4.5-3.2-6.7c-3.6-10.9-3.5-21.7,1.5-32
		c7.7-15.8,20.8-24.2,38-26.3c9.9-1.2,19.2,0.8,28,5.3c0.4,0.2,0.9,0.3,1.9,0.6C364,2.4,327.6,8.8,313.7,39c-0.2,0-0.4,0-0.6,0
		c2.5-8.4,7.6-15,14.3-20.5c20.5-16.7,52.1-14.9,70.5,4.1c12.8,13.2,18.3,38.8,3.1,58.7c-1.2,1.6-2.6,3-3.9,4.5
		c-0.2-0.2-0.3-0.3-0.5-0.5c0.2-0.3,0.4-0.6,0.6-0.9c7.9-10,12.4-21.2,11-34.1c-1.6-14.8-9.6-25.5-22.1-33.3
		c-0.4-0.2-0.8-0.4-1.2-0.6c-0.1,0.1-0.1,0.2-0.2,0.3c0.3,0.2,0.6,0.5,0.9,0.7c2,1.5,4,3,5.9,4.6c22.4,18.8,20,53.3-4.6,69
		c-8.7,5.5-18.1,8-28.3,8c-5.1-0.8-10.2-1.6-14.8-2.3c4.4,1.8,9.6,2.4,14.8,2.9c2.3,0.2,4.6,0.9,6.9,0.7c8.6-1.1,16.6-4,23.9-8.7
		C389.8,91.5,389.9,91.7,390.1,91.9z M363.9,60.4c-0.1,0.1-0.3,0.3-0.4,0.4c-0.1,0.1-0.3,0.3-0.4,0.4c-0.3,0.3-0.6,0.6-0.9,0.9
		c-0.1,0.1-0.3,0.3-0.4,0.4c-0.3,0.3-0.6,0.6-0.9,0.9c-0.4,0.4-0.8,0.7-1.1,1.1c-0.7,0-1.3-0.1-2-0.1c-0.1-0.2-0.2-0.3-0.3-0.5
		c-0.5-0.9-0.9-1.7-1.4-2.6c0.2-1.7-0.4-3-2.2-3.1c-2-0.1-2.5,1.4-2.5,3.1c-1.8,1.6-3.7,3.2-5.5,4.8c-4,3.3-7.9,6.7-12.2,10.3
		c0-17.1,0-33.6,0-50.3c-1.2,0-2.1,0-3.2,0c0,18.8,0,37.4,0,56.1c20.8,0,41.4,0,62.2,0c0-1,0-1.9,0-3c-0.9,0-1.6,0-2.3,0
		c-18,0-36,0-53.9,0c-0.6,0-1.3-0.4-1.9-0.6c2.1-1.8,4.1-3.5,6.2-5.3c1-0.9,2.1-1.8,3.1-2.7c0.1-0.1,0.3-0.3,0.4-0.4
		c1-0.9,2.1-1.8,3.1-2.7c1-0.9,2.1-1.8,3.1-2.7c0.8-0.7,1.6-1.4,2.4-2.1c0.6,0,1.2,0,1.8,0.1c0.6,1,1.2,2,1.8,3
		c-0.1,1.6,0.2,3,2.1,3.1c2,0.1,2.6-1.3,2.6-3c1.1-1.1,2.3-2.3,3.4-3.4c0.4-0.4,0.9-0.9,1.3-1.3c0.9-0.9,1.8-1.8,2.7-2.7
		c0.1-0.1,0.3-0.3,0.4-0.4c0.1-0.1,0.3-0.3,0.4-0.4c0.9-0.9,1.8-1.8,2.7-2.7c0.1-0.1,0.3-0.3,0.4-0.4c0.2-0.1,0.3-0.3,0.4-0.4
		c0.1-0.1,0.3-0.3,0.4-0.4c1.2-1.2,2.4-2.4,3.6-3.6c0.3-0.3,0.6-0.6,0.9-0.9c0.3-0.3,0.6-0.6,0.9-0.9c0.1-0.1,0.3-0.3,0.4-0.4
		c0.1-0.1,0.3-0.3,0.4-0.4c0.3-0.3,0.6-0.6,0.9-0.9c0.4-0.5,0.9-0.9,1.3-1.4c0.1-0.1,0.3-0.3,0.4-0.4c0.3-0.3,0.6-0.6,0.9-0.9
		c0.3-0.3,0.6-0.6,0.9-0.9c0.4-0.4,0.9-0.9,1.3-1.3c0.2-0.1,0.3-0.3,0.5-0.4c0.1-0.1,0.3-0.3,0.4-0.4c0.1-0.1,0.3-0.3,0.4-0.4
		c0.1-0.1,0.3-0.3,0.4-0.4c0.2-0.1,0.3-0.3,0.5-0.4c0.4-0.3,0.8-0.7,1.2-1c1.5,0.3,2.8,0,3.2-1.5c0.2-0.8-0.3-1.9-0.9-2.6
		c-0.4-0.4-1.8-0.6-2.1-0.2c-0.7,0.7-1,1.9-1.5,2.8c-0.7,0.8-1.4,1.6-2.2,2.3c-6.5,6.4-12.9,12.7-19.4,19.1
		c-0.1,0.1-0.3,0.3-0.4,0.4c-0.3,0.3-0.6,0.6-0.9,0.9C364.2,60.1,364.1,60.2,363.9,60.4z M336.7,92.9L336.7,92.9L336.7,92.9
		c1.1,0.8,2.3,1.6,3.4,2.3c0.1-0.2,0.2-0.4,0.3-0.5C339.2,94.1,338,93.5,336.7,92.9z M341.4,95.2c0,0.1-0.1,0.2-0.1,0.3
		c0.4,0.1,0.8,0.3,1.2,0.4c0-0.1,0.1-0.2,0.1-0.3C342.2,95.5,341.8,95.3,341.4,95.2z"/>
	<path id="XMLID_1457_" class="st4" d="M79.7,268.8c12.1,0.5,23.3,3.8,33.6,10.3c11.3,7.1,19.5,16.8,24.2,29.5
		c2.3,6.2,3.4,12.6,3.8,19.1c0,1,0.1,2,0.1,2.9c-0.2,2.9-0.4,5.9-0.7,8.8c-4.7,22-17.5,37.5-37.8,47c-6.2,2.9-12.9,3.4-19.4,4.8
		c-24.8,5.1-57.5-9.3-69.3-37.8c-1.9-4.6-3-9.7-4.1-14.6c-0.5-2.4-0.1-5.1-0.1-7.6c0.3-0.1,0.6-0.1,0.9-0.2
		c1.6,4.9,3.1,9.9,4.7,14.7c0.7,1.9,1.7,3.6,2.6,5.4c0.7,1.4,1.2,2.8,2,4.1c0.7,1.2,1.6,2.3,2.5,3.4c0,0.1,0.1,0.2,0.1,0.3
		c0,0-0.1,0-0.1-0.1c0-0.1,0-0.1,0-0.2c-1.3-2.5-2.5-5-3.8-7.5c-4-10.4-5.1-21.2-2.6-32.1c4.4-19,16-32,33.4-40.3
		c6.4-3.1,13.3-4.6,20.4-5.5c1.6-0.2,3.2-0.7,4.7-0.7c2.5,0.1,4.9,0.5,7.4,0.8c0.3,0,0.6,0,0.9,0c15.3,2.1,28.5,8.1,39.2,19.5
		c8.8,9.4,13.7,20.3,15.1,33c0,0.9,0.1,1.8,0.1,2.6c-0.2,3.1-0.3,6.2-0.5,9.4c-3.9,23.5-17.7,38.7-39.6,46.9
		c-8.3,3.1-17,3.8-25.9,3.5c-8.7-1-17-3.3-24.8-7c-0.2-0.1-0.3-0.2,0,0c-0.4,0-0.1,0,0.1,0c0.2,0.3,0.4,0.7,0.8,0.9
		c7.5,3.6,15.2,6,23.6,6.6c1.1,0.2,2.2,0.3,3.3,0.5c2.8,0.3,5.7,1.3,8.4,0.8c5.7-0.9,11.5-2.1,16.9-4c22.5-8,34.8-24.6,39-47.6
		c0.2-3.1,0.3-6.1,0.5-9.2c0-0.9-0.1-1.8-0.1-2.7c-0.2-1.7-0.3-3.5-0.6-5.2c-3.1-16.2-12.2-28.5-25.4-37.8
		c-9.3-6.6-19.7-10.4-31.1-11.3c-0.9-0.1-1.9-0.3-2.8-0.3c-3.3,0.1-6.6,0.2-9.9,0.3c-14.5,1.4-27.1,7.1-37.7,17.1
		c-3.8,3.6-7.7,7.4-10.8,11.6c-5,6.9-7,15-7.8,23.4c-0.2,0-0.5,0-0.7,0c0.1-0.9,0.2-1.8,0.2-2.7c0.1-0.1,0.1-0.2,0-0.4
		c1.4-12.5,6.5-23.3,15.3-32.3c11.1-11.3,24.7-17.7,40.5-19.6c2.7-0.2,5.3-0.3,8-0.5C77.5,268.8,78.6,268.8,79.7,268.8z M40.9,330.6
		c0,10.3,0,20.6,0,31c0,6.7,3.3,10,10,10c17.7,0,35.4,0,53.1,0c6.5,0,10-3.3,10-9.9c0-20.6,0-41.3,0-61.9c0-6-3.6-9.7-9.6-9.7
		c-18,0-36,0-53.9,0c-5.9,0-9.5,3.6-9.5,9.5C40.9,309.9,40.9,320.3,40.9,330.6z"/>
	<path id="XMLID_1451_" class="st5" d="M260.8,87.5c-2.3,3.7-1.5,7.5,0.1,11c0.8,1.7,2.2,3.1,3.4,4.5c3.1,3.3,5,3.6,9,1.6
		c0.4-0.2,0.8-0.3,1.4-0.6c-0.9,4.3-3.5,6.8-6.9,8.8c-0.6,0.4-1.2,0.7-1.9,1.1c-2.1,0.5-4.3,1.3-6.4,1.3
		c-10.4,0.1-19.8,3.2-28.2,9.3c-4.4,3.1-8.6,6.4-11.4,11.1c-0.3,0.3-0.5,0.6-0.8,0.9c-5.9-4.7-12.1-5.6-18.6-1.3
		c-0.4,0.2-0.8,0.4-1.2,0.6c-0.3-0.3-0.7-0.6-1-1c-0.4-0.5-0.8-1-1.2-1.5c-0.2-0.2-0.4-0.5-0.6-0.7c-5.9-6.8-13.3-11.4-21.6-14.7
		c-6.6-2.6-13.6-2.2-20.4-3.1l0,0c-0.2-0.1-0.3-0.3-0.5-0.4c-4.8-2-8.6-4.9-10.3-10.2c1.9,0.5,3.6,1.1,5.3,1.3
		c0.9,0.1,2.1-0.2,2.9-0.7c5.4-3.8,8.8-10,6.4-16.9c-0.3-0.9-1.2-1.5-1.8-2.3c-1-1.3-2-2.6-3-3.9c-1-1-2-2.1-2.9-3.1
		c-0.1-0.2-0.2-0.4-0.4-0.5c-10.5-11-12.2-24-4.7-37.3c3.2-5.8,7.3-10.9,13.9-13.3c0.7-0.2,1.4-0.5,2.1-0.6c1.4-0.3,2,0.1,1.4,1.7
		c-0.5,1.5-0.9,3.1-1.4,4.7c-3.6,12.8,9,31.2,27.6,26.7c13.3-3.3,26.4-3.3,39.8-0.1c13.3,3.2,25.1-4.5,28.2-17.8
		c1-4.4,0-8.6-1.3-12.8c-0.2-0.6-0.2-1.4-0.3-2c0.7,0,1.5-0.3,2.1,0c2.7,1.4,5.9,2.4,8,4.4c9.8,9.3,13.7,20.7,10.8,34.1
		c-1,4.7-4.2,8.2-7.3,11.6c-0.5,0.6-1,1.2-1.5,1.9c-2.1,2.4-4.2,4.7-6.3,7.1C261.3,86.7,261,87.1,260.8,87.5z M183,87.4
		c-4.6,0.7-7.9,0.9-11,1.7c-5.5,1.5-4.5,0.2-5,6.2c0,0.6,0.5,1.6,1,1.8c1.9,0.8,2.1,2.1,1.9,3.9c-1.1,8.6,3.3,14.8,11.6,16.6
		c0.9,0.2,1.7,0.3,2.6,0.4c10.6,1.5,17.9-2.9,21.2-13.1c0.4-1.2,0.7-2.4,1-3.6c0.4-1.6,1.1-3,3-2.9c1.7,0,2.4,1.3,2.9,2.9
		c0.6,2.2,1.2,4.4,2.2,6.5c2.7,6.1,7.2,10,14.1,10.5c2.8,0.2,5.6,0,8.3-0.5c6.8-1.2,10.7-5.1,11.8-11.4c0.3-1.8,0.3-3.7,0.1-5.5
		c-0.2-1.7,0.2-2.8,1.8-3.5c0.5-0.2,0.9-1.2,1-1.8c0.1-0.9-0.1-1.8-0.1-2.6c0.1-1.7-0.7-2.4-2.3-2.9c-9.7-2.8-19.3-2.5-28.9,0.3
		c-7.3,2.1-14.6,1.9-22,0C192.7,88.7,187.1,88.1,183,87.4z M154.5,51.4c-0.2,0-0.5,0-0.7,0c-1.8,2.3-3.2,4.8-3.6,7.7
		c-1,7,2.2,11.6,8.4,14.5c2,0.9,3,0.1,3.8-1.8c0.7-1.5,1.7-3,2.9-4.2c1.2-1.2,1.6-2.1,0.2-3.2c-0.6-0.5-1.5-1-2.2-1.1
		c-3.8-0.7-7-2.7-8-7.8C155.1,54.1,154.8,52.8,154.5,51.4z M260.2,50.6c0,1.3,0.1,2,0,2.7c-0.8,5.9-2.8,9.1-8,9.9
		c-2.2,0.3-3.1,1.5-3.7,2.6c1.6,2.3,3.1,4.1,4.2,6.2c0.9,1.8,2.1,2.5,4,1.5c1.1-0.6,2.2-1.2,3.2-2C267.3,66.2,266.1,56.6,260.2,50.6
		z M195.4,67.9c0,0.3,0.1,0.7,0.1,1c2.2,0.2,4.5,0.3,6.7,0.6c2.1,0.3,4.3,0.5,6.2,1.2c5.9,2,11.9,3.6,18.3,2.4
		c2.4-0.5,4.6-1.9,4.9-3.3c-2,0.2-4.1,0.5-6.3,0.8c0-0.2-0.1-0.4-0.1-0.7c1-0.5,2-1,3.3-1.7c-4.1-0.6-7.8-1.2-11.6-1.8
		c-2.7,2.4-5-2-7.7-1c-0.1,0.3-0.2,0.5-0.3,0.8c2.6,1.5,5.2,2.9,7.9,4.4c-1.5-0.1-3-0.5-4.4-0.9c-3.8-0.9-7.6-1.9-11.5-2.5
		C199,66.8,197.2,67.6,195.4,67.9z"/>
	<path id="XMLID_1443_" class="st6" d="M315.5,357.8c-0.8-3.1-1.8-6.2-2.3-9.4c-1.6-10.7,0.5-20.6,6.6-29.6
		c7.4-10.8,17.7-17.3,30.5-19.6c9.7-1.8,19.2-0.8,28.3,3.3c0.9,0.4,1.8,0.7,2.7,1c0.9,0.5,1.7,0.9,2.6,1.4c1,0.7,2.1,1.4,3.1,2.2
		c0.3,0.2,0.6,0.3,0.9,0.5c0.6,0.4,1.2,0.9,1.8,1.3c0.6,0.6,1.2,1.1,1.8,1.7c0.4,0.3,0.8,0.6,1.3,0.9c0.1,0.1,0.2,0.2,0.3,0.3
		c0-0.1-0.1-0.3-0.1-0.4c-0.4-0.3-0.9-0.6-1.3-0.9c-0.6-0.6-1.2-1.2-1.8-1.8c-0.6-0.4-1.2-0.9-1.8-1.3c-0.3-0.2-0.5-0.3-0.8-0.5
		c-1-0.7-2.1-1.4-3.1-2.1c-0.9-0.5-1.7-0.9-2.6-1.4c-4.4-3-9.5-4.3-14.7-5.1c-14.2-2.2-27.2,0.8-38.6,9.8
		c-6.9,5.4-13.2,11.5-15.5,20.4c-1,4-1.5,8-2.1,11.5c-0.5-4.2,0.4-8.7,1.9-13.2c3.5-10.7,10.6-18.5,20.1-24.3
		c8.7-5.2,18.2-7.6,28.2-7.2c15.2,0.6,28.2,6.3,38,18.2c5.2,6.4,8.2,13.8,9.1,22.1c0.9,8.5,0.4,16.7-3.5,24.5
		c-7.3,14.5-18.5,24-34.5,27.3c-4.2,0.9-8.6,1.6-12.9,1.5c-20-0.7-35.1-9.6-44.3-27.7c-2.6-5.1-4.3-10.5-3.9-16.3
		c0-0.7,0.2-1.4,0.3-2.1c0.2,0,0.4,0,0.5,0c1.1,3.6,2.2,7.3,3.5,10.9c0.5,1.5,1.3,2.9,2,4.3c0.6,0.9,1.1,1.8,1.7,2.7
		c0.1,0.2,0.2,0.3,0.3,0.5c-0.1-0.2-0.2-0.3-0.3-0.5C316.4,359.5,316,358.7,315.5,357.8z M338,381.2c-0.6-0.4-1.2-0.8-1.8-1.3
		c-0.1,0.2-0.2,0.4-0.3,0.6C336.7,380.8,337.4,381,338,381.2c1,0.4,2.1,0.9,3.1,1.3c0.6,0.4,1.2,0.9,1.8,1.1c4.8,1,9.7,1.9,14.6,2.8
		c4.2,1.7,8.4,0.6,12.5-0.4c12.7-3,23.3-9,29.9-20.6c8.8-15.3,9.5-30.8-0.1-46.1c-1.4-2.2-3.2-4.1-4.8-6.2c-0.2,0.2-0.4,0.3-0.6,0.5
		c0.4,0.6,0.9,1.1,1.3,1.7c7.9,9.7,11.3,20.8,9.3,33.1c-2.4,14.7-10.8,25.3-23.9,32.2c-7.4,3.9-15.3,5.4-23.7,5.1
		c-3.1-0.4-6.2-0.7-9.3-1.3c-2.4-0.5-4.8-1.3-7.1-2C340.1,382.1,339.1,381.7,338,381.2z M383.1,319c-2.6,2.8-5.1,5.4-7.6,8.1
		c0.9,1.4,1.7,2.4,2.4,3.5c5.4,8.4,3.6,20.3-4.1,26.6c-7.4,6.2-16.9,6.9-25,1.7c-1.4-0.9-2.3-0.8-3.3,0.5c-1.3,1.5-2.6,3-4,4.4
		c-2.2,2.3-2.2,2.7,0.5,4.5c7.4,4.9,15.5,6.5,24.2,4.9c19.1-3.4,30.9-23.7,24.5-42C389.1,326.7,386.8,322.6,383.1,319z M333,324.8
		c3.2,2,6.4,3.9,9.6,5.8c3.6-5.2,8.2-8.5,14.2-9.5c6-1,11.5,0.5,16.5,4.1c2.6-2.8,5.2-5.5,7.7-8.3C366.2,304,342.5,308.2,333,324.8z
		 M331.6,327.6c-6.5,10.2-3.7,28.4,5.8,36.8c2.5-2.7,5.1-5.5,7.6-8.3c-5.7-6.8-7-14.3-3.9-22.6C338,331.5,334.8,329.6,331.6,327.6z
		 M354.6,345.9c-0.6,1.1-1.4,2.4-2.4,4.2c2.7,1,5.1,1.9,7.6,2.8c0.1,1,0.1,2.2,0.2,3.2c1.1,0,1.9,0,2.9,0c0-1.3,0-2.5,0-3.7
		c0.4-0.2,0.6-0.3,0.9-0.4c2.8-0.8,4.5-2.6,4.9-5.6c0.3-3.1-1.4-5-3.9-6.3c-1.3-0.7-2.8-1.1-4-1.9c-0.7-0.5-1-1.5-1.5-2.3
		c0.8-0.4,1.7-1.3,2.5-1.2c1.5,0.1,2.9,0.6,4.5,1c0.6-1.2,1.1-2.3,1.9-3.7c-1.9-0.7-3.6-1.4-5.4-2.1c0-1.1,0-2.2,0-3.3
		c-1,0-1.9,0-3,0c0.7,2.6-0.5,3.8-2.6,5c-3.9,2.3-3.8,7.3-0.1,9.9c1.3,0.9,3,1.4,4.2,2.3c0.8,0.6,1.3,1.7,1.9,2.6
		c-1,0.5-2.1,1.6-3.1,1.5C358.3,347.7,356.7,346.7,354.6,345.9z M317.6,361.9c-0.1,0.1-0.2,0.1-0.3,0.2c0.3,0.4,0.6,0.7,0.9,1.1
		c0.1-0.1,0.2-0.1,0.3-0.2C318.2,362.7,317.9,362.3,317.6,361.9z"/>
	<path id="XMLID_1440_" class="st7" d="M17.1,70.2c-1.6-5.2-2.7-10.4-2.3-15.8c1.4-17.7,10.8-29.8,26.7-36.9
		C51,13.3,60.9,12.9,71,15c3.7,1.4,7.6,2.5,11.1,4.3c17,8.8,26.1,27.4,22.3,45.1c-4.5,20.7-23.9,35.3-45.7,34.3
		c-3.4-0.5-6.8-0.9-10.2-1.5c-1.8-0.3-3.5-0.9-5.3-1.3c-0.3-0.2-0.6-0.3-0.9-0.5c-1.5-0.8-3-1.5-4.5-2.3c-0.1,0.3-0.2,0.6-0.4,0.8
		c1.5,0.6,3.1,1.1,4.6,1.7c0.3,0.2,0.6,0.3,0.9,0.5c4.9,2.4,10.2,2.9,15.5,3.4c1.9,0.2,3.8,0.9,5.6,0.7c7.1-0.8,13.9-2.7,20.1-6.3
		c2.7-1.6,5.3-3.3,7.9-5c-0.4,0.6-0.8,1.3-1.3,1.7c-6.9,5.5-14.6,8.6-23.4,10.1c-17.1,2.9-31.6-1.7-43.9-13.6
		c-7.1-6.9-11.3-15.5-12.5-25.5c-0.2-1.6,0-3.2,0-4.8c0.3-0.1,0.5-0.1,0.8-0.2c1.1,3.6,2.2,7.2,3.5,10.8c0.4,1.2,1.1,2.3,1.7,3.5
		c0.3,0.5,0.6,1,0.9,1.5c0.2,0.1,0.3,0.3,0.5,0.4c0.3,0.7,0.6,1.5,0.9,2.2c0.1,0.3,0.3,0.6,0.4,0.9c0,0,0.1,0.1,0.1,0.1
		c0,0,0.1,0,0.1,0c-0.1,0-0.2-0.1-0.2-0.1c-0.1-0.3-0.3-0.6-0.4-0.9c-0.3-0.7-0.6-1.5-0.9-2.2c-0.2-0.1-0.3-0.3-0.5-0.4
		C17.6,71.8,17.4,71,17.1,70.2z M90.5,54.9c0-17.3-13.8-31.4-31-31.5C42,23.4,28,37.2,27.9,54.5C27.9,72,41.8,86.1,59.2,86.1
		C76.3,86.2,90.4,72.1,90.5,54.9z"/>
	<path id="XMLID_1439_" class="st8" d="M140.8,339.4c0.2-2.9,0.4-5.9,0.7-8.8c0.4,0.2,0.8,0.3,1.2,0.5
		c26.4,12.4,54.1,16.9,83.2,13.5c22.8-2.7,43.7-10.4,63-22.7c13.5-8.6,24.8-19.9,36.1-31.1c7.5-7.3,13-16.2,17.2-25.7
		c0.9,0.1,1.8,0.1,2.7,0.2c-4.7,12.2-11.4,23.2-19.8,33.2c-17.5,20.7-39.2,35.4-64.7,44.6c-20.8,7.5-42.3,10.4-64.3,9.2
		c-18.4-1-36.1-4.9-53.1-12.1C142.2,339.9,141.5,339.7,140.8,339.4z"/>
	<path id="XMLID_1438_" class="st8" d="M150.7,78.7c1,1,2,2.1,2.9,3.1c-6.4,2.8-12.9,5.3-19.2,8.5c-14.8,7.4-28.2,16.9-38.9,29.7
		c-17.4,21-28.5,45-32.8,72c-2.6,16.1-1.9,32.1,2.1,47.9c2.6,10.1,6.1,19.8,11.3,28.8c-2.7,0.2-5.3,0.3-8,0.5c-1-2.7-2-5.4-2.9-8
		c-3.9-10.7-6.5-21.7-7.7-33c-1.1-10.6-1.3-21.2-0.5-31.8c1.1-14.8,5.6-28.5,12-41.7c8.3-17.1,19.1-32.3,32.9-45.3
		c13.9-12.9,29.7-22.9,47.2-30.1C149.9,79.2,150.3,79,150.7,78.7z"/>
	<path id="XMLID_1437_" class="st7" d="M18.2,33.5c5-8.7,12.4-14.6,21.4-18.6c18.6-8.3,40.9-4.4,55.4,9.5c7.3,7,11.2,15.7,12.5,25.7
		c1.9,14-2.6,25.8-11.9,36c-0.4,0.5-1.2,0.7-1.8,1.1c2.8-4.4,6.2-8.6,8.4-13.3c13.6-29.6-8.9-54.7-31.4-59.6
		c-16.5-3.8-31.1-0.1-43.7,11.2c-3,2.7-5.6,5.8-8.4,8.7C18.6,33.9,18.4,33.7,18.2,33.5z"/>
	<path id="XMLID_1436_" class="st9" d="M71,14.3c22.5,4.9,45,30,31.4,59.6c-2.2,4.7-5.6,8.9-8.4,13.3c0,0,0,0,0,0
		c-0.5,0.5-0.9,0.9-1.4,1.4l0,0c-0.2,0.2-0.3,0.3-0.5,0.5l0,0c-2.6,1.7-5.2,3.5-7.9,5c-6.2,3.6-13,5.5-20.1,6.3
		c-1.8,0.2-3.8-0.4-5.6-0.7c0-0.3,0.1-0.5,0.1-0.8c21.7,1,41.2-13.6,45.7-34.3c3.8-17.7-5.3-36.3-22.3-45.1
		c-3.5-1.8-7.4-2.9-11.1-4.3C71,14.7,71,14.5,71,14.3z"/>
	<path id="XMLID_1435_" class="st8" d="M18.2,33.5c0.2,0.2,0.4,0.4,0.7,0.7c-3.8,6.5-5.7,13.5-5.9,21.1
		C12.3,47.4,14.1,40.1,18.2,33.5z"/>
	<path id="XMLID_1434_" class="st8" d="M313.2,38.9c0.2,0,0.4,0,0.6,0c-0.9,4.7-1.8,9.4-2.8,14.2C310.8,48.3,311.2,43.5,313.2,38.9z
		"/>
	<path id="XMLID_1433_" class="st9" d="M82.2,273.3c-2.5-0.3-4.9-0.7-7.4-0.8c-1.6,0-3.2,0.4-4.7,0.7c-0.3-0.4-0.6-0.8-0.9-1.1
		c3.3-0.1,6.6-0.2,9.9-0.3c0.9,0,1.9,0.2,2.8,0.3C82,272.5,82.1,272.9,82.2,273.3z"/>
	<path id="XMLID_1432_" class="st10" d="M22.8,358.6c-0.8-1.1-1.7-2.2-2.5-3.4c-0.8-1.3-1.3-2.7-2-4.1c0.2,0,0.4,0,0.6,0
		C20.2,353.6,21.5,356.1,22.8,358.6L22.8,358.6z"/>
	<path id="XMLID_1431_" class="st10" d="M315.6,68.9c1.1,2.2,2.1,4.5,3.2,6.7c-0.1,0.1-0.2,0.1-0.3,0.2c-1.1-2.1-2.3-4.2-3.4-6.3
		C315.3,69.3,315.4,69.1,315.6,68.9z"/>
	<path id="XMLID_1430_" class="st8" d="M12.3,324.2c0.2,0,0.5,0,0.7,0c0,1.7,0,3.5,0,5.2c-0.2,0-0.5,0-0.7,0
		C12.3,327.7,12.3,325.9,12.3,324.2z"/>
	<path id="XMLID_1429_" class="st11" d="M316.8,360.4c-0.6-0.9-1.1-1.8-1.7-2.7c0.1,0,0.3,0,0.4,0
		C316,358.7,316.4,359.5,316.8,360.4L316.8,360.4z"/>
	<path id="XMLID_1428_" class="st3" d="M391.8,90.5c-0.6,0.4-1.2,0.9-1.7,1.3c-0.2-0.2-0.3-0.3-0.5-0.5c0.6-0.4,1.2-0.8,1.8-1.3
		C391.6,90.2,391.7,90.4,391.8,90.5z"/>
	<path id="XMLID_1427_" class="st10" d="M17.9,72.6c-0.3-0.5-0.6-1-0.9-1.5c0.1-0.3,0.1-0.5,0.2-0.8C17.4,71,17.6,71.8,17.9,72.6
		C17.9,72.6,17.9,72.6,17.9,72.6z"/>
	<path id="XMLID_1426_" class="st3" d="M394,88.7c-0.5,0.4-1,0.8-1.4,1.2c-0.1-0.1-0.3-0.3-0.4-0.4c0.5-0.4,1-0.8,1.5-1.2
		C393.7,88.4,393.9,88.6,394,88.7z"/>
	<path id="XMLID_1425_" class="st3" d="M397.1,85.7c-0.5,0.5-1,1-1.5,1.5c-0.1-0.1-0.3-0.3-0.4-0.4c0.5-0.5,1-1.1,1.5-1.6
		C396.8,85.4,397,85.5,397.1,85.7z"/>
	<path id="XMLID_1424_" class="st7" d="M92.6,88.5c0.5-0.5,0.9-0.9,1.4-1.4C93.5,87.6,93.1,88,92.6,88.5z"/>
	<path id="XMLID_1423_" class="st3" d="M395.6,87.2c-0.2,0.2-0.5,0.5-0.7,0.7c-0.1-0.2-0.2-0.3-0.4-0.5c0.2-0.2,0.4-0.4,0.7-0.6
		C395.3,86.9,395.5,87.1,395.6,87.2z"/>
	<path id="XMLID_1422_" class="st3" d="M392.6,89.9c-0.3,0.2-0.5,0.4-0.8,0.6c-0.1-0.1-0.3-0.3-0.4-0.4c0.2-0.2,0.5-0.4,0.7-0.6
		C392.3,89.6,392.4,89.8,392.6,89.9z"/>
	<path id="XMLID_1421_" class="st8" d="M12.5,321.1c0,0.1,0,0.3,0,0.4c0-0.1,0-0.2-0.1-0.3C12.4,321.2,12.5,321.2,12.5,321.1z"/>
	<path id="XMLID_1420_" class="st7" d="M92.2,88.9c0.2-0.2,0.3-0.3,0.5-0.5C92.5,88.6,92.3,88.8,92.2,88.9z"/>
	<path id="XMLID_1419_" class="st3" d="M394.5,88.3c-0.2,0.1-0.4,0.3-0.5,0.4c-0.1-0.1-0.3-0.3-0.4-0.4c0.2-0.1,0.3-0.3,0.5-0.4
		C394.2,88,394.4,88.1,394.5,88.3z"/>
	<path id="XMLID_1418_" class="st3" d="M394.9,87.9c-0.1,0.1-0.2,0.2-0.4,0.4c-0.2-0.1-0.3-0.3-0.5-0.4c0.2-0.1,0.3-0.3,0.5-0.4
		C394.6,87.6,394.8,87.8,394.9,87.9z"/>
	<path id="XMLID_1349_" class="st12" d="M217.7,139.2c2.4,0.8,4.9,1.5,7.3,2.4c4.3,1.6,8.5,3.2,12.7,5c4.7,2,7.3,6,8.3,10.8
		c1.1,5.4,1.7,10.9,2.2,16.4c1.5,16.7,2.7,33.4,4.1,50.1c0.1,0.9,0,1.7,0,2.7c-1.1,0.1-2.1,0.3-3.1,0.4c-1.6,0-3.3,0-4.9,0
		c-1.4,0-2.7,0-4.1,0c-0.8,2.4-2.9,4.8-6.5,7.2c-8.9,4.3-18.3,6.2-28,5c-7-0.9-13.7-3.1-18.4-9c0-2.1,0-4.1,0-6.4
		c-1.7,3.1-3.3,6-4.9,8.8c-0.7-0.4-1.7-0.7-2.1-1.3c-1-1.5-1.8-3.3-2.7-4.9c-1.5-3.1-2.9-6.2-4.4-9.3c-1.9-4.8-3.9-9.7-5.8-14.5
		c-1.7-4.5-2.4-8.9-1.4-13.8c2.4-11.8,4.4-23.7,8.4-35.2c1.2-3.6,3.2-6.3,6.8-7.6c5.8-2.1,11.6-4.1,17.4-6.2
		c0.7-0.3,1.5-0.6,2.2-0.9c1.8,1.4,3.6,2.7,5.4,4.1c0.6,12.5,2.1,24.9,0.1,37.4c-0.1,0.9,0.3,2.3,0.9,2.8c3.9,2.6,4.7,6.6,5.3,10.7
		c0.1,0.8,0.5,1.7,0.8,2.5c0.2,0,0.4,0,0.6,0c0.2-1,0.6-1.9,0.7-2.9c0.2-4.6,0.5-9.1,0.3-13.7c-0.5-12.3-1.1-24.7-1.7-37
		C214.8,141.5,216.2,140.4,217.7,139.2z M184.9,213.3c0.2,0,0.5-0.1,0.7-0.1c0.3-12.5,0.6-25,1-37.5c-0.2,0-0.4,0-0.6,0
		c-1.5,4.1-3.1,8.1-4.4,12.2c-0.7,2.2-1.9,4.6-1.7,6.7C180.5,201.1,182.6,207.2,184.9,213.3z M237.3,211.3c0.2,0,0.4,0,0.6,0
		c-0.7-11.9-1.3-23.8-2-35.7C234.4,187.6,234.9,199.5,237.3,211.3z"/>
	<path id="XMLID_1348_" class="st13" d="M173.2,217c1.5,3.1,2.9,6.2,4.4,9.3c-2.6,2.6-5,5.6-7.9,7.9c-5.1,4.1-11.2,6.3-17.7,7.5
		c-12.4,2.3-24.3,0.8-35.6-4.8c-11.3-5.7-18.6-14.8-21-27.3c-2.2-11.3,0-22.1,6.5-31.5c3.7-5.4,8.3-10.2,12.6-15.3
		c0.5-0.6,1.3-0.9,1.9-1.4c1.1-0.1,2.2-0.2,3.3-0.3c4.1-0.6,7.3,0.9,9.6,4.4c0.7,1,1.4,1.9,2.1,2.8c2.1,3,5,4.7,8.5,5.6
		c4,1,8,1.3,11.9-0.1c-2.3,6.1-3.7,12.5-4.3,19c-0.9,10.1,2.1,19.4,13.4,23.1C165,217.2,169.1,217.4,173.2,217z"/>
	<path id="XMLID_1347_" class="st14" d="M187.2,230.2c4.7,5.9,11.4,8.1,18.4,9c9.7,1.2,19.2-0.7,28-5c-0.1,3.2-0.1,6.4-0.2,9.5
		c-1.2,0-2.4,0-3.5,0.1c-2.3,0.1-4.6,0.1-6.8,0.5c-2.7,0.4-4.1,1.9-4.1,3.9c0,4,0,7.9,0.1,11.9c0,4,0,8,0,12c0,4.6,2.8,7.4,7.3,7.6
		c1.7,0.1,3.5,0.4,5.2,0.6c-0.2,4.1-0.4,8.1-0.6,12.2c-3.4,0.6-6.7,1.2-10.1,1.7c-4,0.5-8,1.6-11.9,1.2c-6.2-0.6-12.3-2.2-18.5-3.3
		c-0.5-8.1-0.9-16.1-1.4-24.2c-0.5-9.2-0.9-18.3-1.4-27.5c0.5,0.1,1,0.2,1.9,0.4c-0.3-1.4-0.5-2.5-0.8-3.6
		C188.4,234.7,187.8,232.4,187.2,230.2z"/>
	<path id="XMLID_1344_" class="st12" d="M151.9,173.8c-4,1.4-8,1-11.9,0.1c-3.5-0.9-6.4-2.6-8.5-5.6c-0.7-1-1.4-1.9-2.1-2.8
		c-2.3-3.4-5.5-5-9.6-4.4c-1.1,0.2-2.2,0.2-3.3,0.3c2.1-2.1,4.3-4.2,6.4-6.3c3.4-3.2,6.8-6.3,10.1-9.6c7-6.9,7.6-15.4,5.7-24.4
		c-0.1-0.7-0.3-1.4-0.6-2.3c0.8,0.2,1.3,0.3,1.7,0.5c9.6,5.4,16.8,12.6,18.9,23.9c2,10.6-0.1,20.3-5.8,29.4
		C152.6,173.1,152.2,173.4,151.9,173.8z M149.7,166.3c-0.3,0.1-0.6,0.3-0.9,0.4c0.8-3.7,1.6-7.3,2.4-11c-0.3-0.1-0.7-0.1-1-0.2
		c-0.7,3.2-1.4,6.5-2.2,9.7c-0.1,0-0.3,0-0.4-0.1c0-2.8,0-5.5,0-8.3c-0.2,0-0.4,0-0.6,0c0,3-0.1,6,0.1,9c0,0.3,1.1,0.6,1.7,0.8
		c0.2,0.2,0.4,0.4,0.6,0.7C149.5,167,149.6,166.7,149.7,166.3c0.2-0.1,0.3-0.3,0.4-0.4c0.9-1.3,1.9-2.5,2.6-3.9
		c1.8-3.6,1.9-9.2,0.3-12.2c-0.2,0.8-0.2,1.6-0.2,2.5c0.1,3.5,0.1,6.9-1.3,10.1c-0.5,1.1-0.9,2.3-1.3,3.4
		C150,166,149.8,166.2,149.7,166.3z"/>
	<path id="XMLID_1343_" class="st15" d="M76.3,268.8c-5.2-9-8.8-18.8-11.3-28.8c-4-15.8-4.7-31.8-2.1-47.9c4.3-27,15.4-51,32.8-72
		c10.6-12.8,24-22.3,38.9-29.7c6.2-3.1,12.8-5.7,19.2-8.5c1,1.3,2,2.6,3,3.9c-4.4,1.7-8.9,3.2-13.1,5.2
		c-26.6,12.6-47.6,31.5-62.2,57.2c-7.8,13.9-12.8,28.7-14.9,44.5c-3.5,26.2,0.8,51.1,12.7,74.7c0.2,0.5,0.3,1,0.5,1.4
		C78.6,268.8,77.5,268.8,76.3,268.8z"/>
	<path id="XMLID_1342_" class="st16" d="M219.1,260c0-4-0.1-7.9-0.1-11.9c0-2,1.4-3.4,4.1-3.9c2.2-0.4,4.5-0.4,6.8-0.5
		c1.2-0.1,2.3,0,3.5-0.1c1.1,0,2.2,0,3.3,0c0.4,0.6,0.7,1.1,1.1,1.7c0.5-0.5,0.9-1.1,1.4-1.6c0.4,0,0.7,0,1.1,0.1c0.2,0,0.3,0,0.5,0
		c3.2,0,6.5,0,9.7,0c0.4,0.1,0.7,0.2,1.1,0.3c0.5,0.4,1,0.9,1.6,1.3c0.3-0.5,0.6-1.1,0.9-1.6c4.3,0.1,8.5,0,12.7,0.4
		c4.1,0.4,4.9,1.7,4.9,5.7c0,3.2,0,6.5-0.1,9.7c-2.2,2.1-4.8,2.8-7.8,2.7c-3.7-0.1-7.3-0.1-11,0c-0.8,0-1.5,0.5-2.3,0.8
		c-0.3-4.4-0.3-4.4-4.9-4.3c-0.6,0-1.3,0.1-1.9,0.2c-0.5,0-0.9,0-1.4,0c-0.3,0.1-0.6,0.1-0.9,0.2c-0.3,1-0.5,2.1-0.8,3.1
		c-0.1,0-0.2,0-0.2,0c-3.7,0-7.5-0.1-11.2,0C225.7,262.4,222.2,262.3,219.1,260z"/>
	<path id="XMLID_1341_" class="st15" d="M342.1,265.1c-4.3,9.6-9.8,18.4-17.2,25.7c-11.3,11.2-22.5,22.4-36.1,31.1
		c-19.3,12.3-40.2,20-63,22.7c-29,3.4-56.7-1.2-83.2-13.5c-0.4-0.2-0.8-0.3-1.2-0.5c0-1-0.1-2-0.1-2.9c14.1,6.8,28.9,11.3,44.4,13.5
		c13.4,1.9,26.9,2,40.3,0.2c21.8-2.9,42-10.1,60.4-22.1c21.2-13.8,37.6-31.9,48.6-54.8C337.3,264.7,339.7,264.9,342.1,265.1z"/>
	<path id="XMLID_1340_" class="st17" d="M250.6,263.1c0.8-0.3,1.5-0.8,2.3-0.8c3.7-0.1,7.3-0.1,11,0c3,0.1,5.6-0.6,7.8-2.7
		c0,3.5,0,7.1,0,10.6c-1.9,5.4-6.6,7.7-11.5,7.6c-10.9-0.2-21.9-0.1-32.8,0c-3.1,0-5.4-1.2-6.9-3.8c-0.4-0.7-0.9-1.3-1.3-2
		c0-4,0-8,0-12c3.1,2.3,6.6,2.4,10.2,2.3c3.7-0.1,7.5,0,11.2,0c0.4,1.1-0.5,2.9,1.6,3c2.4,0,4.7-0.1,7.1-0.2l0.2,0l0.1-0.1
		c0.3-0.2,0.6-0.3,0.9-0.5c0.1,0,0.2-0.1,0.2-0.1c0-0.1,0-0.2-0.1-0.3C250.6,263.7,250.6,263.4,250.6,263.1z"/>
	<path id="XMLID_1339_" class="st5" d="M188.2,295.8c0.8-0.3,1.6-0.6,2.3-0.9c0.5,3.6,0.5,3.6,4.3,4.1c1.8,0.2,3.6,0.5,5.5,0.7
		c5.8,0.7,11.6,1.5,17.5,0.3c3.1-0.6,6.3-0.8,9.4-1c3.1-0.2,3.4-0.4,3.9-3.6c0.3,0,0.6,0,0.9,0c1.6,4.2,1.2,8.5,0.6,12.7
		c-15,0-29.9,0-44.9,0c-0.1-0.7-0.1-1.4-0.2-2.1c0-0.3-0.1-0.6-0.1-0.9C186.9,302,186.9,298.9,188.2,295.8z"/>
	<path id="XMLID_1337_" class="st18" d="M219.9,135.8c2.8-4.7,7.1-8,11.4-11.1c8.4-6,17.8-9.2,28.2-9.3c2.1,0,4.3-0.9,6.4-1.3
		c-2,2.6-4,5.3-6,7.8c-3.8,4.8-9,6.7-14.8,7.2c-3.9,0.3-7.8,0.2-11.7,0.7C228.4,130.4,224.2,133.2,219.9,135.8z"/>
	<path id="XMLID_1336_" class="st18" d="M154.5,115c6.8,0.9,13.8,0.4,20.4,3.1c8.3,3.3,15.7,7.9,21.6,14.7c-0.3,0.2-0.7,0.4-1,0.5
		c-6-3.3-12.4-4.1-19.1-4.1c-7.8,0.1-14.3-2.7-18.7-9.5C156.6,118.1,155.6,116.5,154.5,115z"/>
	<path id="XMLID_1335_" class="st19" d="M231.1,295.4c-0.5,3.1-0.7,3.3-3.9,3.6c-3.1,0.2-6.3,0.4-9.4,1c-5.9,1.2-11.7,0.4-17.5-0.3
		c-1.8-0.2-3.6-0.4-5.5-0.7c-3.8-0.5-3.8-0.4-4.3-4.1c0-0.5,0-0.9,0-1.4c0,0,0.1-0.1,0.1-0.1c0-0.1-0.1-0.2-0.1-0.2
		c0-0.5,0-0.9,0-1.4c6.1,1.2,12.3,2.7,18.5,3.3c3.9,0.4,7.9-0.7,11.9-1.2c3.4-0.5,6.7-1.1,10.1-1.7
		C231,293.4,231.1,294.4,231.1,295.4z"/>
	<path id="XMLID_1334_" class="st19" d="M217.7,139.2c-1.5,1.2-2.9,2.4-4.4,3.5c-2.4,0.1-4.7,0.2-7.1,0.2c-1.8-1.4-3.6-2.7-5.4-4.1
		c-0.5-1-1-2-1.4-3c0.4-0.2,0.8-0.3,1.2-0.6c6.5-4.2,12.7-3.4,18.6,1.3C218.6,137.5,218.2,138.3,217.7,139.2z"/>
	<path id="XMLID_1333_" class="st20" d="M219.1,272c0.4,0.7,0.9,1.3,1.3,2c1.6,2.6,3.9,3.8,6.9,3.8c10.9-0.1,21.9-0.2,32.8,0
		c4.9,0.1,9.6-2.2,11.5-7.6c0.8,5.2-1.8,8.7-6.9,9.4c-2.2,0.3-4.4,0.3-6.6,0.3c-8.1,0-16.2,0-24.3,0c-0.8,0-1.6,0.2-2.4,0.3
		c-1.7-0.2-3.5-0.6-5.2-0.6C221.9,279.4,219.1,276.6,219.1,272z"/>
	<path id="XMLID_1332_" class="st18" d="M188.2,295.8c-1.3,3-1.3,6.2-0.9,9.4c0,0.3,0.1,0.6,0.1,0.9c0.1,0.7,0.1,1.4,0.2,2.1
		c-0.3,0.1-0.6,0.1-0.9,0.2c-0.5,0.1-0.9,0.1-1.4,0.2c-1.9,0.1-3.8,0.4-5.7,0.4c-0.6,0-1.6-0.5-1.7-1c-2.1-6.8,2.3-13.4,9.5-12.6
		C187.7,295.5,188,295.7,188.2,295.8z"/>
	<path id="XMLID_1331_" class="st18" d="M232.5,308.2c0.6-4.3,1.1-8.6-0.6-12.7c7.9-1.1,12.1,5.7,10.6,11.8c-0.3,1.4-0.8,2-2.4,1.8
		C237.6,308.7,235.1,308.5,232.5,308.2z"/>
	<path id="XMLID_1330_" class="st5" d="M244.2,227c1.6,0,3.3,0,4.9,0c0.3,1.6,0.8,3.1,1,4.7c0.1,1.6-0.1,3.3-0.1,4.9
		c-2.3-0.1-4.7-0.3-7-0.4C241.8,232.9,243.3,230,244.2,227z"/>
	<path id="XMLID_1329_" class="st4" d="M187.2,230.2c0.6,2.3,1.1,4.5,1.7,6.8c0.3,1.1,0.5,2.2,0.8,3.6c-0.9-0.2-1.4-0.3-1.9-0.4
		c-1.4-1.9-2.8-3.8-4.2-5.7c-0.4-0.6-0.8-1.2-1.2-1.8c1.6-2.9,3.2-5.7,4.9-8.8C187.2,226,187.2,228.1,187.2,230.2z"/>
	<path id="XMLID_1328_" class="st21" d="M243,236.2c2.3,0.1,4.7,0.3,7,0.4c-0.1,0.4-0.2,0.8-0.3,1.2c-0.1,0.7-0.1,1.4-0.2,2.1
		c-1.8,0.7-3.6,1.5-5.4-0.1c-0.5-0.7-1-1.3-1.5-2C242.7,237.2,242.9,236.7,243,236.2z"/>
	<path id="XMLID_1327_" class="st9" d="M260.8,87.5c0.2-0.4,0.5-0.8,0.7-1.2c3.6,1.6,7.3,3.2,10.8,4.9c1.4,0.7,2.6,1.7,3.8,2.9
		C271,91.8,265.9,89.7,260.8,87.5z"/>
	<path id="XMLID_1326_" class="st22" d="M249.5,239.9c0.1-0.7,0.1-1.4,0.2-2.1c0.9,0,1.8,0,2.7,0c0,0,0.2,0.1,0.2,0.1l0.2,0
		c0.5,0.7,1.2,1.3,1.3,2.1c0.2,1.3,0.1,2.6,0.1,3.9c-0.3,0.5-0.6,1.1-0.9,1.6c-0.5-0.4-1-0.9-1.6-1.3c0-0.1,0-0.3,0-0.4
		c0-1.2,0-2.3,0-3.5c-0.2-0.1-0.3-0.2-0.5-0.2C250.5,239.9,250,239.9,249.5,239.9z"/>
	<path id="XMLID_1325_" class="st4" d="M286,220.7c1.2,2.3,2.3,4.5,3.5,6.8c-0.2,0.1-0.4,0.2-0.7,0.3c-1.1-2.2-2.2-4.4-3.3-6.7
		C285.7,221,285.8,220.8,286,220.7z"/>
	<path id="XMLID_1324_" class="st9" d="M195.5,133.2c0.3-0.2,0.7-0.4,1-0.5c0.2,0.2,0.4,0.5,0.6,0.7c-0.1,0.1-0.1,0.1-0.2,0.2
		c-0.1,0.1-0.3,0.2-0.4,0.3C196.2,133.7,195.9,133.5,195.5,133.2z"/>
	<path id="XMLID_1323_" class="st9" d="M197.1,133.4c0.4,0.5,0.8,1,1.2,1.5c-0.5-0.3-0.9-0.5-1.4-0.8c0-0.2,0-0.4,0-0.6
		C197,133.6,197.1,133.5,197.1,133.4z"/>
	<path id="XMLID_1322_" class="st8" d="M185.4,308.6c0.5-0.1,0.9-0.1,1.4-0.2C186.3,308.5,185.8,308.6,185.4,308.6z"/>
	<path id="XMLID_1321_" class="st9" d="M277,94.7c-0.1,0-0.2-0.1-0.3-0.1C276.8,94.6,276.9,94.6,277,94.7L277,94.7z"/>
	<path id="XMLID_1320_" class="st18" d="M154.1,114.6c0.2,0.1,0.3,0.3,0.5,0.4C154.4,114.9,154.3,114.7,154.1,114.6z"/>
	<path id="XMLID_1319_" class="st21" d="M252.6,237.8l-0.2,0c0,0-0.2-0.1-0.2-0.1C252.4,237.8,252.5,237.8,252.6,237.8z"/>
	<path id="XMLID_1318_" class="st14" d="M190.6,293.2c0,0.1,0.1,0.2,0.1,0.2c0,0-0.1,0.1-0.1,0.1
		C190.5,293.5,190.5,293.4,190.6,293.2z"/>
	<path id="XMLID_1317_" class="st18" d="M197,133.6c0,0.2,0,0.4,0,0.6c-0.1,0-0.3-0.1-0.4-0.2C196.7,133.8,196.8,133.7,197,133.6z"
		/>
	<polygon id="XMLID_1316_" class="st9" points="277,94.7 277.1,94.8 277,94.7 	"/>
	<path id="XMLID_1313_" class="st23" d="M347.9,182.3c1.2,1.8,2.3,3.5,3.5,5.3c1.9-0.5,3.8-1,6-1.5c0.9,3.4,1.8,6.7,2.8,10.3
		c-2,0.6-4,1.1-5.8,1.7c-0.1,0.3-0.2,0.4-0.2,0.6c-0.9,4.5,0.1,7.8,5.5,8.3c-0.9,1.9-1.6,3.5-2.4,5.1c-0.8,1.6-1.5,3.2-2.4,4.9
		c-1.7-0.8-3.2-1.5-5-2.3c-1.2,1.4-2.3,2.9-3.6,4.4c1.2,1.8,2.4,3.5,3.7,5.4c-3,2-5.8,4-8.8,6.1c-1.3-1.8-2.6-3.6-3.8-5.4
		c-2,0.6-4,1.2-6.2,1.9c0,2.2,0,4.4,0,6.7c-3.8-0.2-7.3-0.3-10.9-0.5c0.1-2.3,0.2-4.5,0.3-6.6c-2.1-0.8-4.2-1.6-6.4-2.4
		c-1.3,1.5-2.6,3.1-4,4.9c-2.7-2.2-5.4-4.4-8.3-6.8c1.3-1.7,2.6-3.3,3.9-4.9c-1-1.4-1.9-2.8-2.9-4.3c-2.1,0.8-4.2,1.5-6.5,2.4
		c-1.3-3.4-2.5-6.6-3.8-10.1c1.7-0.7,3.3-1.4,4.9-1.8c1.8-0.5,2.6-1.4,2.2-3.3c-0.1-0.6,0-1.3,0-2c-2.5-0.9-4.8-1.7-7.3-2.6
		c1.2-3.5,2.3-6.8,3.5-10.2c2.2,0.8,4.3,1.4,6.5,2.2c1.2-1.9,2.5-3.8,3.8-5.8c-1.3-1.7-2.7-3.4-4.2-5.3c2.8-2.2,5.5-4.4,8.4-6.7
		c1.5,1.8,2.9,3.6,4.3,5.3c2.4-0.8,4.6-1.6,7.1-2.4c0-1.8,0-3.7,0-5.7c3.7,0,7.2,0,10.9,0c0,1.9,0,3.9,0,5.8
		c2.3,0.8,4.5,1.6,6.8,2.5c1.5-1.5,3.1-3.2,4.8-5c2.6,2.5,5.1,4.8,7.8,7.4C350.6,179.3,349.2,180.8,347.9,182.3z M310.7,200
		c0,9,7.4,16.3,16.4,16.2c8.8,0,16.1-7.3,16.2-16.2c0.1-8.8-7.4-16.4-16.3-16.3C318,183.7,310.6,191.1,310.7,200z"/>
	<path id="XMLID_1310_" class="st7" d="M356.2,181.9c-0.8-2-1.4-3.8-2.1-5.4c1-1.6,4-0.5,3.9-3.1c-0.1-2.6-3-1.3-4.1-3
		c0.6-1.7,1.2-3.5,1.8-5.3c4.2,0.7,4.2,0.7,5.8-2.2c-0.7-1-1.5-2-2.3-3.1c1.6-1.3,3.1-2.5,4.6-3.7c1.7,0.6,1.7,3.3,4.5,2.4
		c2.5-0.8,2.4-2.3,2.4-4.2c2,0,3.9,0,5.9,0c0.5,1.5-0.5,3.5,2.3,4.2c2.6,0.7,2.8-1.6,4.6-2.3c0.6,0.6,1.3,1.3,2.1,1.9
		c0.8,0.7,1.6,1.3,2.2,2c-0.3,1.6-2.8,1.7-1.7,3.9c1.3,2.5,3,1.1,4.8,1c0.5,1.9,1,3.8,1.6,5.8c-1.2,0.4-2.2,0.7-3.2,1.1
		c-1.1,2.8,0,4.3,3,4.9c-1,2.1-1.8,3.8-2.7,5.8c-1.9-1.1-3.7-1.6-4.7,1.2c0.5,0.8,1.2,1.9,1.9,3.1c-1.7,1.2-3.3,2.3-5,3.4
		c-1.4-1.2-1.8-3.7-4.5-2.5c-2.1,1-0.7,2.8-1.7,4.3c-1.7-0.1-3.6-0.2-5.7-0.3c0-1.3,0-2.5,0-3.7c-3.3-1.5-3.3-1.5-5.9,1.3
		c-1.5-1.3-3.1-2.5-4.8-3.9c0.8-1,1.4-1.9,2-2.7C360.6,179.4,358.2,181.5,356.2,181.9z M382.8,172.9c0-5.1-4.2-9.3-9.3-9.2
		c-5,0.1-9.1,4.3-9,9.4c0.1,5.1,4.1,9,9.2,9C378.7,182.2,382.8,178.1,382.8,172.9z"/>
	<path id="XMLID_1299_" class="st10" d="M392.4,199.9c1.2,1,2.3,2,3.6,3.2c-1,0.9-1.8,1.6-2.6,2.4c0.4,1,0.9,2.1,1.3,3.2
		c1.1,0,2.1,0,3.3,0c0,2.2,0,4.3,0,6.5c-0.9,0.1-1.8,0.1-2.6,0.2c-1.8,2.5,0,3.6,2.1,4.6c-1.1,1.9-2.1,3.7-3.3,5.7
		c-1-0.6-2-1.1-3-1.7c-2.3,1.3-3.3,2.9-0.9,5.5c-2.3,1-4.2,1.8-6.2,2.6c-0.6-1.2-1.1-2.2-1.6-3.3c-1.2,0.1-2.2,0.3-3.5,0.4
		c-0.3,1-0.6,2-1,3.2c-2.1-0.5-4-1-6.1-1.5c0.1-1.8,1.5-4.1-2.1-4.6c-0.5,0.7-1.1,1.7-1.9,2.9c-1.9-1.8-3.5-3.3-5.3-5.1
		c0.7-0.5,1.2-0.8,1.7-1.2c0.1,0.2,0.2,0.3,0.3,0.5c0.1,0.6-0.1,1.4,0.2,1.7c0.7,0.9,1.7,1.7,2.4,2.3c0.8-0.6,1.5-1.1,2.3-1.7
		c-1.2-1.3-2.3-2.5-3.4-3.7c-0.4,0.3-0.7,0.5-1.1,0.8c-0.2-0.1-0.3-0.2-0.5-0.3c0.2-0.8,0.6-2.3,0.5-2.3c-1.4-0.5-2.8-0.8-4.7-1.2
		c-0.2-1.5-0.4-3.6-0.7-5.5c1.2-1.2,3.5,0.4,4-2.4c0.5-2.8-1.6-2.8-3.1-3.8c0.9-1.9,1.8-3.8,2.8-5.9c2.6,2.2,4.6,1.3,6.2-1.4
		c-0.3-0.7-0.7-1.6-1.2-2.7c1.9-0.9,3.8-1.8,5.8-2.8c0.5,1,1,1.9,1.5,2.8c2.8,0.3,4.9-0.4,5-3.9c2.2,0.7,4.2,1.3,6.2,2
		c-0.3,1.1-0.5,2-0.8,3.1c0.9,0.6,1.8,1.1,2.8,1.8c0.9-0.6,1.7-1.3,2.9-2.1C392.1,198.9,392.3,199.4,392.4,199.9
		c-0.9,0.2-1.8,0.5-2.9,0.7c1.4,1.6,2.5,2.8,3.6,4.1c0.6-0.6,1.1-1,1.6-1.5C393.9,202,393.1,201,392.4,199.9z M379.3,198.1
		c-8.3,0-15,6.8-15,15.1c0.1,8.5,6.7,15,15.3,15c8.3,0,15-6.8,15-15.1C394.5,204.7,387.7,198.1,379.3,198.1z M360.6,214
		c0.2,1.7,0.4,3.2,0.7,4.9c1.1-0.2,2-0.4,3-0.5c-0.3-1.7-0.6-3.2-0.9-4.8C362.4,213.8,361.6,213.9,360.6,214z M363.8,202.7
		c-0.7,1.6-1.4,3-2.1,4.5c0.9,0.5,1.6,0.8,2.4,1.2c0.8-1.5,1.5-2.9,2.2-4.4C365.5,203.5,364.8,203.2,363.8,202.7z M383.5,228.7
		c0.4,0.8,0.8,1.6,1.1,2.3c1.6-0.7,3-1.3,4.5-1.9c-0.5-1-0.8-1.7-1.2-2.4C386.4,227.4,385,228,383.5,228.7z M394,224.6
		c0.8-1.4,1.6-2.8,2.5-4.3c-0.9-0.5-1.5-0.9-2.2-1.2c-0.9,1.5-1.6,2.8-2.5,4.2C392.6,223.7,393.2,224.1,394,224.6z M386.1,196.1
		c-1.6-0.5-3.1-1-4.6-1.5c-0.3,0.9-0.6,1.7-0.9,2.6c1.6,0.4,3.2,0.7,4.8,1.1C385.6,197.5,385.9,196.9,386.1,196.1z M372.8,230.3
		c1.8,0.4,3.2,0.7,4.8,1.1c0.2-0.9,0.3-1.6,0.5-2.3c-1.6-0.4-3.1-0.7-4.7-1.1C373.2,228.7,373.1,229.4,372.8,230.3z M373.9,195.7
		c-1.5,0.7-2.9,1.4-4.4,2.1c0.4,0.8,0.7,1.4,1,1.9c1.5-0.7,2.9-1.4,4.4-2.1C374.6,197,374.3,196.4,373.9,195.7z M397.2,214.5
		c0-1.8,0-3.2,0-4.9c-0.8,0-1.5,0.1-2.2,0.1c0.1,1.7,0.2,3.1,0.2,4.6C396,214.4,396.5,214.4,397.2,214.5z"/>
	<path id="XMLID_1298_" class="st4" d="M336.8,260.5c-7.6-1.2-14.8-3.2-21.4-7.4c0-0.1,0.1-0.3,0.1-0.4c6.7,3.6,13.9,5.7,21.3,7.3
		C336.8,260.2,336.8,260.3,336.8,260.5z"/>
	<path id="XMLID_1297_" class="st10" d="M336.8,260.5c0-0.2,0-0.3,0-0.5c2.4,0.2,4.7,0.5,7.1,0.7c0,0.2,0,0.4,0,0.6
		C341.5,261,339.1,260.8,336.8,260.5z"/>
	<path id="XMLID_1296_" class="st8" d="M343.9,261.3c0-0.2,0-0.4,0-0.6c0.8,0.1,1.7,0.1,2.5,0.2c-0.1,0.3-0.1,0.5-0.2,0.8
		C345.4,261.6,344.6,261.4,343.9,261.3z"/>
	<path id="XMLID_1295_" class="st21" d="M315.5,252.7c0,0.1,0,0.3-0.1,0.4c-0.3-0.2-0.5-0.4-0.8-0.6l0,0
		C314.9,252.6,315.2,252.6,315.5,252.7z"/>
	<polygon id="XMLID_1294_" class="st4" points="289.7,228.4 289.6,228.5 289.6,228.3 	"/>
	<path id="XMLID_1293_" class="st10" d="M364.4,222.9c0.1-0.1,0.1-0.2,0.2-0.2c0.2,0.1,0.3,0.2,0.5,0.3c-0.1,0.2-0.3,0.3-0.4,0.5
		C364.6,223.3,364.5,223.1,364.4,222.9z"/>
	<path id="XMLID_1292_" class="st21" d="M314.6,252.5c0,0-0.1-0.1-0.1-0.1C314.5,252.5,314.6,252.5,314.6,252.5
		C314.6,252.5,314.6,252.5,314.6,252.5z"/>
	<path id="XMLID_1291_" class="st24" d="M334.3,78.6c0.6,0.2,1.3,0.6,1.9,0.6c18,0,36,0,53.9,0c0.7,0,1.4,0,2.3,0c0,1.1,0,2,0,3
		c-20.7,0-41.3,0-62.2,0c0-18.7,0-37.3,0-56.1c1,0,2,0,3.2,0c0,16.7,0,33.2,0,50.3c4.3-3.6,8.3-7,12.2-10.3c0.1,0.1,0.3,0.3,0.4,0.4
		c-0.8,0.8-1.6,1.7-2.4,2.5l0,0c-0.6,0.6-1.2,1.2-1.8,1.8l0,0c-0.3,0.2-0.6,0.3-0.9,0.5l0,0c-0.6,0.6-1.2,1.2-1.8,1.8l0,0
		c-0.2,0.2-0.3,0.3-0.5,0.5l0,0c-1,0.9-2.1,1.8-3.1,2.7l0,0c-0.2,0.2-0.3,0.3-0.5,0.5l0,0c-1.5,0.3-1.8,0.7-1.5,1.6
		C334.1,78.3,334.2,78.4,334.3,78.6z"/>
	<path id="XMLID_1290_" class="st9" d="M394.5,87.4c-0.2,0.1-0.3,0.3-0.5,0.4c-0.2,0.1-0.3,0.3-0.5,0.4c-0.5,0.4-1,0.8-1.5,1.2
		c-0.2,0.2-0.5,0.4-0.7,0.6c-0.6,0.4-1.2,0.8-1.8,1.3c-7.3,4.8-15.3,7.7-23.9,8.7c-2.2,0.3-4.6-0.4-6.9-0.7c0-0.2,0-0.4,0-0.6
		c10.2,0.1,19.6-2.4,28.3-8c24.6-15.7,27-50.2,4.6-69c-1.9-1.6-3.9-3-5.9-4.6c0.2-0.1,0.3-0.3,0.5-0.4c12.4,7.7,20.4,18.5,22.1,33.3
		c1.4,12.9-3.1,24.1-11,34.1c-0.2,0.3-0.4,0.6-0.6,0.9c-0.5,0.5-1,1.1-1.5,1.6C395,87,394.7,87.2,394.5,87.4z"/>
	<path id="XMLID_1289_" class="st24" d="M365.7,58.6c6.5-6.4,12.9-12.7,19.4-19.1c0.1,0.1,0.2,0.3,0.3,0.4c-0.5,0.6-0.9,1.1-1.4,1.7
		l0,0c-0.2,0.2-0.3,0.3-0.5,0.5l0,0c-0.3,0.3-0.6,0.6-0.9,0.9l0,0c-0.7,0.7-1.5,1.5-2.2,2.2l0,0c-0.2,0.2-0.3,0.3-0.5,0.5l0,0
		c-0.3,0.3-0.6,0.6-0.9,0.9l0,0c-0.6,0.6-1.2,1.2-1.8,1.8l0,0c-0.3,0.3-0.6,0.6-0.9,0.9l0,0c-0.3,0.3-0.6,0.6-0.9,0.9l0,0
		c-0.1,0.1-0.3,0.3-0.4,0.4l0,0c-0.1,0.1-0.3,0.3-0.4,0.4l0,0c-0.1,0.1-0.3,0.3-0.4,0.4l0,0c-0.1,0.1-0.3,0.3-0.4,0.4l0,0
		c-0.3,0.3-0.6,0.6-0.9,0.9l0,0c-0.7,0.7-1.5,1.5-2.2,2.2l0,0c-0.3,0.3-0.6,0.6-0.9,0.9l0,0c-0.1,0.1-0.3,0.3-0.4,0.4l0,0
		c-0.1,0.1-0.3,0.3-0.4,0.4l0,0c-0.6,0.6-1.2,1.2-1.7,1.7l0,0c-0.1,0.1-0.3,0.3-0.4,0.4l0,0c-0.2,0-0.5,0.1-0.7,0.1
		C365.9,58.9,365.8,58.7,365.7,58.6z"/>
	<path id="XMLID_1288_" class="st15" d="M354.4,62.9c-0.6,0-1.2,0-1.8-0.1c-0.3-0.2-0.5-0.3-0.8-0.5c-0.1-0.2-0.2-0.3-0.3-0.5
		c-0.1-0.2-0.3-0.4-0.4-0.5c0-1.7,0.5-3.2,2.5-3.1c1.8,0.1,2.4,1.4,2.2,3.1c-0.2,0.3-0.3,0.6-0.5,0.9c-0.1,0-0.2,0.1-0.2,0.3
		C355,62.6,354.7,62.7,354.4,62.9z"/>
	<path id="XMLID_1287_" class="st15" d="M387.3,37.2c0.5-1,0.8-2.1,1.5-2.8c0.3-0.3,1.8-0.2,2.1,0.2c0.6,0.6,1.1,1.8,0.9,2.6
		c-0.4,1.5-1.7,1.8-3.2,1.5c-0.1-0.1-0.2-0.2-0.3-0.3c-0.2-0.1-0.4-0.2-0.6-0.3C387.6,37.8,387.4,37.5,387.3,37.2z"/>
	<path id="XMLID_1286_" class="st17" d="M357.6,64.5c0.7,0,1.3,0.1,2,0.1c0.2,0.2,0.3,0.3,0.5,0.5c0.2,0.2,0.3,0.3,0.5,0.5
		c0.1,0.2,0.3,0.3,0.4,0.5c0,1.7-0.6,3.1-2.6,3c-1.9-0.1-2.3-1.5-2.1-3.1c0.1-0.3,0.3-0.5,0.4-0.8c0.1-0.1,0.3-0.1,0.4-0.2
		C357.3,64.8,357.5,64.6,357.6,64.5z"/>
	<path id="XMLID_1285_" class="st10" d="M358.8,98.8c0,0.2,0,0.4,0,0.6c-5.2-0.5-10.3-1.1-14.8-2.9C348.7,97.3,353.8,98,358.8,98.8z
		"/>
	<path id="XMLID_1284_" class="st24" d="M340.5,73.3c-2.1,1.8-4.1,3.5-6.2,5.3c-0.1-0.1-0.2-0.3-0.4-0.4c0.5-0.5,1-1.1,1.5-1.6l0,0
		c0.2-0.2,0.3-0.3,0.5-0.5l0,0c1-0.9,2.1-1.8,3.1-2.7l0,0c0.2-0.2,0.3-0.3,0.5-0.5l0,0c0.3-0.1,0.5-0.1,0.8-0.2
		C340.2,73,340.4,73.1,340.5,73.3z"/>
	<path id="XMLID_1283_" class="st24" d="M351.3,61.3c0.1,0.2,0.3,0.4,0.4,0.5c-0.8,0.9-1.7,1.8-2.5,2.8l0,0
		c-0.6,0.4-1.2,0.9-1.8,1.3l0,0c-0.4,0.2-0.8,0.4-1.2,0.6c-0.1-0.1-0.3-0.3-0.4-0.4C347.6,64.5,349.4,62.9,351.3,61.3z"/>
	<path id="XMLID_1282_" class="st24" d="M376.8,50.3c-1.2,1.2-2.4,2.4-3.6,3.6c-0.1-0.1-0.2-0.3-0.3-0.4c0-0.3,0.1-0.5,0.1-0.8l0,0
		c0.3-0.3,0.6-0.6,0.9-0.9l0,0c0.1-0.1,0.3-0.3,0.4-0.4l0,0c0.1-0.1,0.3-0.3,0.4-0.4l0,0c0.1-0.1,0.3-0.3,0.4-0.4l0,0
		c0.1-0.1,0.3-0.3,0.4-0.4l0,0c0.3,0,0.5-0.1,0.8-0.1C376.5,50,376.7,50.1,376.8,50.3z"/>
	<path id="XMLID_1281_" class="st24" d="M347.1,67.5c-1,0.9-2.1,1.8-3.1,2.7c-0.1-0.1-0.2-0.3-0.4-0.4c0-0.3,0.1-0.5,0.1-0.8l0,0
		c1-0.6,2-1.3,3-1.9C346.9,67.2,347,67.4,347.1,67.5z"/>
	<path id="XMLID_1280_" class="st24" d="M343.6,70.6c-1,0.9-2.1,1.8-3.1,2.7c-0.1-0.1-0.3-0.3-0.4-0.4c0.3-0.5,0.7-1.1,1-1.6
		c0,0,0,0,0,0c0.3-0.2,0.6-0.3,0.9-0.5l0,0c0.4-0.2,0.8-0.4,1.2-0.6C343.3,70.3,343.5,70.4,343.6,70.6z"/>
	<path id="XMLID_1279_" class="st24" d="M350.2,64.9c-1,0.9-2.1,1.8-3.1,2.7c-0.1-0.1-0.3-0.3-0.4-0.4c0.2-0.4,0.4-0.8,0.6-1.2l0,0
		c0.6-0.4,1.2-0.9,1.8-1.3l0,0c0.3-0.1,0.5-0.1,0.8-0.2C350,64.6,350.1,64.7,350.2,64.9z"/>
	<path id="XMLID_1278_" class="st10" d="M336.7,92.9c1.2,0.6,2.5,1.2,3.7,1.8c-0.1,0.2-0.2,0.4-0.3,0.5
		C339,94.5,337.9,93.7,336.7,92.9L336.7,92.9z"/>
	<path id="XMLID_1277_" class="st24" d="M371.9,55.1c-0.9,0.9-1.8,1.8-2.7,2.7c-0.1-0.1-0.2-0.3-0.4-0.4c0-0.3,0.1-0.5,0.1-0.8l0,0
		c0.1-0.1,0.3-0.3,0.4-0.4l0,0c0.1-0.1,0.3-0.3,0.4-0.4l0,0c0.3-0.3,0.6-0.6,0.9-0.9l0,0c0.3,0,0.5-0.1,0.8-0.1
		C371.7,54.9,371.8,55,371.9,55.1z"/>
	<path id="XMLID_1276_" class="st24" d="M356.7,65.1c-0.1,0.3-0.3,0.5-0.4,0.8c-0.6-1-1.2-2-1.8-3c0.3-0.1,0.5-0.3,0.8-0.4
		c0.2,0.3,0.3,0.5,0.5,0.8l0,0C356,63.9,356.4,64.5,356.7,65.1z"/>
	<path id="XMLID_1275_" class="st24" d="M361,66c-0.1-0.2-0.3-0.3-0.4-0.5c1.2-1.1,2.3-2.2,3.5-3.2c0.1,0.1,0.3,0.2,0.4,0.4
		C363.3,63.8,362.1,64.9,361,66z"/>
	<path id="XMLID_1274_" class="st24" d="M387.3,37.2c0.2,0.3,0.3,0.6,0.5,0.9c-0.2,0.1-0.4,0.3-0.6,0.4l0,0
		c-0.6,0.5-1.1,0.9-1.7,1.4c-0.1-0.1-0.2-0.3-0.3-0.4C385.8,38.7,386.5,37.9,387.3,37.2z"/>
	<path id="XMLID_1273_" class="st24" d="M351.9,62.3c0.3,0.2,0.5,0.3,0.8,0.5c-0.8,0.7-1.6,1.4-2.4,2.1c-0.1-0.1-0.3-0.3-0.4-0.4
		C350.5,63.7,351.2,63,351.9,62.3z"/>
	<path id="XMLID_1272_" class="st24" d="M368.4,58.6c-0.9,0.9-1.8,1.8-2.7,2.7c-0.1-0.1-0.2-0.2-0.4-0.4c0.5-0.7,0.9-1.4,1.4-2.1
		l0,0c0.1-0.1,0.3-0.3,0.4-0.4l0,0c0.3,0,0.5-0.1,0.8-0.1C368.1,58.4,368.3,58.5,368.4,58.6z"/>
	<path id="XMLID_1271_" class="st24" d="M355.5,62.2c0.2-0.3,0.3-0.6,0.5-0.9c0.5,0.9,0.9,1.7,1.4,2.6c-0.2,0.1-0.3,0.2-0.5,0.4
		c-0.4-0.3-0.8-0.7-1.2-1l0,0C355.7,62.9,355.6,62.6,355.5,62.2z"/>
	<path id="XMLID_1270_" class="st24" d="M385.2,41.8c-0.4,0.4-0.9,0.9-1.3,1.3c-0.1-0.1-0.2-0.2-0.3-0.4c0-0.3,0.1-0.5,0.1-0.8l0,0
		c0.2-0.2,0.3-0.3,0.5-0.5l0,0c0.3,0,0.5-0.1,0.8-0.1C384.9,41.6,385.1,41.7,385.2,41.8z"/>
	<path id="XMLID_1269_" class="st24" d="M381.7,45.4c-0.4,0.5-0.9,0.9-1.3,1.4c-0.1-0.1-0.2-0.2-0.4-0.4c0-0.3,0.1-0.5,0.1-0.8l0,0
		c0.2-0.2,0.3-0.3,0.5-0.5l0,0c0.3,0,0.5-0.1,0.8-0.1C381.4,45.2,381.5,45.3,381.7,45.4z"/>
	<path id="XMLID_1268_" class="st10" d="M341.4,95.2c0.4,0.1,0.8,0.3,1.3,0.4c0,0.1-0.1,0.2-0.1,0.3c-0.4-0.1-0.8-0.3-1.2-0.4
		C341.3,95.4,341.4,95.3,341.4,95.2z"/>
	<path id="XMLID_1267_" class="st24" d="M365.7,61.3c-0.4,0.4-0.9,0.9-1.3,1.3c-0.1-0.1-0.3-0.2-0.4-0.4c0.4-0.4,0.9-0.9,1.3-1.3
		C365.5,61.1,365.6,61.2,365.7,61.3z"/>
	<path id="XMLID_1266_" class="st24" d="M388.3,38.4c0.1,0.1,0.2,0.2,0.3,0.3c-0.4,0.3-0.8,0.7-1.2,1c-0.1-0.1-0.2-0.2-0.3-0.4
		c0-0.3,0.1-0.5,0.1-0.8l0,0C387.5,38.5,387.9,38.4,388.3,38.4z"/>
	<path id="XMLID_1265_" class="st24" d="M360.1,65c-0.2-0.2-0.3-0.3-0.5-0.5c0.4-0.4,0.8-0.7,1.1-1.1c0.1,0.1,0.2,0.3,0.4,0.4
		C360.8,64.2,360.5,64.6,360.1,65z"/>
	<path id="XMLID_1264_" class="st24" d="M380.3,46.7c-0.3,0.3-0.6,0.6-0.9,0.9c-0.1-0.1-0.2-0.2-0.3-0.4c0-0.3,0.1-0.5,0.1-0.8l0,0
		c0.3,0,0.5-0.1,0.8-0.1C380.1,46.5,380.2,46.6,380.3,46.7z"/>
	<path id="XMLID_1263_" class="st24" d="M378.6,48.5c-0.3,0.3-0.6,0.6-0.9,0.9c-0.1-0.1-0.2-0.2-0.3-0.3c0-0.3,0.1-0.5,0.1-0.8l0,0
		c0.3,0,0.5-0.1,0.8-0.1C378.3,48.2,378.4,48.4,378.6,48.5z"/>
	<path id="XMLID_1262_" class="st24" d="M377.7,49.4c-0.3,0.3-0.6,0.6-0.9,0.9c-0.1-0.1-0.2-0.2-0.4-0.4c0-0.3,0.1-0.5,0.1-0.8l0,0
		c0.3,0,0.5-0.1,0.8-0.1C377.4,49.1,377.5,49.3,377.7,49.4z"/>
	<path id="XMLID_1261_" class="st25" d="M386.2,16.9c-0.2,0.1-0.3,0.3-0.5,0.4c-0.3-0.2-0.6-0.5-0.9-0.7c0.1-0.1,0.1-0.2,0.2-0.3
		C385.4,16.5,385.8,16.7,386.2,16.9z"/>
	<path id="XMLID_1260_" class="st24" d="M383.8,43.2c-0.3,0.3-0.6,0.6-0.9,0.9c-0.1-0.1-0.2-0.2-0.4-0.3c0-0.3,0.1-0.5,0.1-0.8l0,0
		c0.3,0,0.5-0.1,0.8-0.1C383.6,43,383.7,43.1,383.8,43.2z"/>
	<path id="XMLID_1259_" class="st24" d="M362.1,62.2c0.3-0.3,0.6-0.6,0.9-0.9c0.1,0.1,0.2,0.3,0.4,0.4c-0.3,0.3-0.6,0.6-0.9,0.9
		C362.4,62.4,362.2,62.3,362.1,62.2z"/>
	<path id="XMLID_1258_" class="st24" d="M383,44.1c-0.3,0.3-0.6,0.6-0.9,0.9c-0.1-0.1-0.2-0.3-0.3-0.4c0.3-0.3,0.6-0.6,0.9-0.9
		C382.7,43.8,382.8,44,383,44.1z"/>
	<path id="XMLID_1257_" class="st24" d="M364.3,59.9c0.3-0.3,0.6-0.6,0.9-0.9c0.1,0.1,0.2,0.2,0.3,0.4c-0.3,0.3-0.6,0.6-0.9,0.9
		C364.6,60.2,364.5,60.1,364.3,59.9z"/>
	<path id="XMLID_1256_" class="st24" d="M360.8,63.4c0.3-0.3,0.6-0.6,0.9-0.9c0.1,0.1,0.2,0.3,0.3,0.4c-0.3,0.3-0.6,0.6-0.9,0.9
		C361,63.7,360.9,63.6,360.8,63.4z"/>
	<path id="XMLID_1255_" class="st24" d="M357.6,64.5c-0.2,0.2-0.4,0.3-0.5,0.5c-0.1-0.2-0.1-0.4-0.2-0.6c0.2-0.1,0.3-0.2,0.5-0.4
		C357.5,64.1,357.5,64.3,357.6,64.5z"/>
	<path id="XMLID_1254_" class="st24" d="M379,48c-0.1,0.1-0.3,0.3-0.4,0.4c-0.1-0.1-0.2-0.2-0.4-0.4c0.1-0.1,0.3-0.3,0.4-0.4
		C378.8,47.8,378.9,47.9,379,48z"/>
	<path id="XMLID_1253_" class="st24" d="M379.4,47.6c-0.1,0.1-0.3,0.3-0.4,0.4c-0.1-0.1-0.2-0.2-0.4-0.3c0.1-0.1,0.3-0.3,0.4-0.4
		C379.2,47.4,379.3,47.5,379.4,47.6z"/>
	<path id="XMLID_1252_" class="st24" d="M382.1,45c-0.1,0.1-0.3,0.3-0.4,0.4c-0.1-0.1-0.2-0.2-0.4-0.3c0.1-0.1,0.3-0.3,0.4-0.4
		C381.8,44.7,381.9,44.9,382.1,45z"/>
	<path id="XMLID_1251_" class="st24" d="M385.6,41.4c-0.2,0.1-0.3,0.3-0.5,0.4c-0.1-0.1-0.2-0.2-0.3-0.3c0.1-0.1,0.3-0.3,0.4-0.4
		C385.4,41.2,385.5,41.3,385.6,41.4z"/>
	<path id="XMLID_1250_" class="st24" d="M386.1,41c-0.1,0.1-0.3,0.3-0.4,0.4c-0.1-0.1-0.2-0.2-0.4-0.3c0.1-0.1,0.3-0.3,0.4-0.4
		C385.8,40.7,386,40.8,386.1,41z"/>
	<path id="XMLID_1249_" class="st24" d="M386.5,40.5c-0.1,0.1-0.3,0.3-0.4,0.4c-0.1-0.1-0.2-0.2-0.4-0.3c0.2-0.1,0.3-0.3,0.5-0.4
		C386.3,40.3,386.4,40.4,386.5,40.5z"/>
	<polygon id="XMLID_1248_" class="st10" points="336.7,92.9 336.7,92.8 336.7,92.9 	"/>
	<path id="XMLID_1247_" class="st24" d="M365.2,59.1c0.1-0.1,0.3-0.3,0.4-0.4c0.1,0.1,0.2,0.2,0.4,0.4c-0.1,0.1-0.3,0.3-0.4,0.4
		C365.5,59.3,365.4,59.2,365.2,59.1z"/>
	<path id="XMLID_1246_" class="st24" d="M368.8,58.2c-0.1,0.1-0.3,0.3-0.4,0.4c-0.1-0.1-0.3-0.2-0.4-0.4c0.1-0.1,0.3-0.3,0.4-0.4
		C368.6,58,368.7,58.1,368.8,58.2z"/>
	<path id="XMLID_1245_" class="st24" d="M369.2,57.8c-0.1,0.1-0.3,0.3-0.4,0.4c-0.1-0.1-0.3-0.2-0.4-0.3c0.1-0.1,0.3-0.3,0.4-0.4
		C369,57.5,369.1,57.7,369.2,57.8z"/>
	<path id="XMLID_1244_" class="st24" d="M344,70.2c-0.1,0.1-0.3,0.3-0.4,0.4c-0.1-0.1-0.3-0.3-0.4-0.4c0.2-0.1,0.3-0.3,0.5-0.4
		C343.8,69.9,343.9,70.1,344,70.2z"/>
	<path id="XMLID_1243_" class="st24" d="M372.4,54.7c-0.1,0.1-0.3,0.3-0.4,0.4c-0.1-0.1-0.2-0.2-0.4-0.4c0.1-0.1,0.3-0.3,0.4-0.4
		C372.1,54.4,372.2,54.6,372.4,54.7z"/>
	<path id="XMLID_1242_" class="st24" d="M372.8,54.2c-0.2,0.1-0.3,0.3-0.4,0.4c-0.1-0.1-0.3-0.2-0.4-0.3c0.1-0.1,0.3-0.3,0.4-0.4
		C372.6,54,372.7,54.1,372.8,54.2z"/>
	<path id="XMLID_1241_" class="st24" d="M373.2,53.8c-0.1,0.1-0.3,0.3-0.4,0.4c-0.1-0.1-0.3-0.2-0.4-0.3c0.1-0.1,0.3-0.3,0.4-0.4
		C373,53.6,373.1,53.7,373.2,53.8z"/>
	<path id="XMLID_1240_" class="st24" d="M387.4,39.7c-0.2,0.1-0.3,0.3-0.5,0.4c-0.1-0.1-0.2-0.2-0.3-0.4c0.1-0.1,0.3-0.3,0.4-0.4
		C387.1,39.4,387.3,39.5,387.4,39.7z"/>
	<path id="XMLID_1239_" class="st24" d="M361.7,62.6c0.1-0.1,0.3-0.3,0.4-0.4c0.1,0.1,0.3,0.2,0.4,0.3c-0.1,0.1-0.3,0.3-0.4,0.4
		C361.9,62.8,361.8,62.7,361.7,62.6z"/>
	<path id="XMLID_1238_" class="st24" d="M386.9,40.1c-0.1,0.1-0.3,0.3-0.4,0.4c-0.1-0.1-0.2-0.2-0.4-0.3c0.1-0.2,0.3-0.3,0.4-0.5
		C386.7,39.9,386.8,40,386.9,40.1z"/>
	<path id="XMLID_1237_" class="st24" d="M363,61.2c0.1-0.1,0.3-0.3,0.4-0.4c0.1,0.1,0.2,0.3,0.4,0.4c-0.2,0.1-0.3,0.3-0.5,0.4
		C363.3,61.5,363.1,61.4,363,61.2z"/>
	<path id="XMLID_1236_" class="st24" d="M363.5,60.8c0.1-0.1,0.3-0.3,0.4-0.4c0.1,0.1,0.2,0.3,0.4,0.4c-0.1,0.1-0.3,0.3-0.4,0.4
		C363.7,61.1,363.6,60.9,363.5,60.8z"/>
	<path id="XMLID_1235_" class="st24" d="M363.9,60.4c0.1-0.1,0.3-0.3,0.4-0.4c0.1,0.1,0.3,0.2,0.4,0.4c-0.1,0.2-0.3,0.3-0.4,0.5
		C364.2,60.6,364,60.5,363.9,60.4z"/>
	<path id="XMLID_1220_" class="st9" d="M138.6,338.3c-4.2,23.1-16.4,39.7-39,47.6c-5.4,1.9-11.2,3.1-16.9,4
		c-2.7,0.4-5.6-0.5-8.4-0.8c-1.1-0.1-2.2-0.3-3.3-0.5c0.2-0.1,0.3-0.3,0.5-0.4c8.8,0.3,17.5-0.4,25.9-3.5
		c21.9-8.2,35.8-23.3,39.6-46.9C137.5,338,138,338.2,138.6,338.3z"/>
	<path id="XMLID_1219_" class="st1" d="M82.2,273.3c-0.1-0.4-0.2-0.8-0.3-1.2c11.4,0.9,21.8,4.7,31.1,11.3
		c13.3,9.3,22.3,21.6,25.4,37.8c0.3,1.7,0.4,3.5,0.6,5.2c-0.6-0.2-1.1-0.4-1.7-0.5c-1.4-12.7-6.3-23.7-15.1-33
		c-10.7-11.4-23.9-17.4-39.2-19.5C82.8,273.3,82.5,273.3,82.2,273.3z"/>
	<path id="XMLID_1218_" class="st10" d="M71.5,388.2c-0.2,0.1-0.3,0.3-0.5,0.4c-8.3-0.5-16.1-3-23.6-6.6c-0.3-0.2-0.5-0.6-0.8-0.9
		l0,0C54.5,385,62.8,387.3,71.5,388.2z"/>
	<path id="XMLID_1217_" class="st1" d="M138.6,338.3c-0.5-0.2-1.1-0.3-1.6-0.5c0.2-3.1,0.3-6.2,0.5-9.4c0.6,0.2,1.1,0.4,1.7,0.6
		C138.9,332.2,138.7,335.3,138.6,338.3z"/>
	<path id="XMLID_1216_" class="st9" d="M139.1,329.1c-0.6-0.2-1.1-0.4-1.7-0.6c0-0.9-0.1-1.8-0.1-2.6c0.6,0.2,1.1,0.4,1.7,0.5
		C139,327.3,139.1,328.2,139.1,329.1z"/>
	<path id="XMLID_1215_" class="st10" d="M22.8,358.6c0,0.1,0,0.1,0,0.2c0,0,0.1,0,0.1,0.1C22.9,358.8,22.8,358.7,22.8,358.6
		L22.8,358.6z"/>
	<path id="XMLID_1214_" class="st10" d="M46.7,381.2C46.5,381.2,46.2,381.1,46.7,381.2C46.3,381,46.5,381.1,46.7,381.2L46.7,381.2z"
		/>
	<path id="XMLID_1210_" class="st26" d="M183,87.4c4.2,0.7,9.7,1.3,15.1,2.7c7.4,1.9,14.7,2.1,22,0c9.6-2.8,19.3-3.1,28.9-0.3
		c1.6,0.5,2.4,1.2,2.3,2.9c0,0.9,0.2,1.8,0.1,2.6c-0.1,0.7-0.5,1.6-1,1.8c-1.6,0.7-2,1.9-1.8,3.5c0.2,1.8,0.2,3.7-0.1,5.5
		c-1,6.3-5,10.2-11.8,11.4c-2.7,0.5-5.6,0.7-8.3,0.5c-6.9-0.4-11.4-4.4-14.1-10.5c-0.9-2.1-1.5-4.3-2.2-6.5
		c-0.4-1.6-1.1-2.8-2.9-2.9c-1.9-0.1-2.6,1.3-3,2.9c-0.3,1.2-0.6,2.4-1,3.6c-3.4,10.2-10.6,14.7-21.2,13.1c-0.9-0.1-1.7-0.3-2.6-0.4
		c-8.3-1.8-12.6-7.9-11.6-16.6c0.2-1.8,0-3.1-1.9-3.9c-0.5-0.2-1-1.2-1-1.8c0.4-6-0.5-4.7,5-6.2C175.1,88.3,178.3,88.1,183,87.4z
		 M187.8,91.2c-2.8,0.4-5.7,0.7-8.5,1.4c-1.4,0.4-3,1.4-3.9,2.6c-2.7,3.6-1.9,12.5,1.1,15.9c6.2,7,19.8,5,23.4-3.6
		c1.1-2.7,1.5-5.8,2-8.8c0.3-1.9-0.6-3.4-2.2-4.4C196.1,92.1,192,91.5,187.8,91.2z M230.8,91.2c-2.4,0.3-4.8,0.5-7,1
		c-6.9,1.7-8.2,3.7-6.8,10.7c1.8,9.1,7.9,13.4,17.1,12.1c5.2-0.8,9.1-3.8,9.9-8.4c0.5-2.7,0.5-5.6,0.1-8.3c-0.4-3.2-2.3-5.3-5.7-5.9
		C235.9,92,233.3,91.6,230.8,91.2z"/>
	<path id="XMLID_1209_" class="st21" d="M154.5,51.4c0.3,1.4,0.6,2.7,0.8,4.1c0.9,5.1,4.2,7.1,8,7.8c0.8,0.2,1.6,0.6,2.2,1.1
		c1.4,1.1,1,2.1-0.2,3.2c-1.2,1.2-2.2,2.6-2.9,4.2c-0.8,1.9-1.9,2.8-3.8,1.8c-6.2-2.9-9.4-7.5-8.4-14.5c0.4-3,1.8-5.5,3.6-7.7
		C154.1,51.4,154.3,51.4,154.5,51.4z"/>
	<path id="XMLID_1208_" class="st21" d="M260.2,50.6c5.9,6,7.1,15.6-0.3,20.9c-1,0.7-2.1,1.4-3.2,2c-1.9,1-3,0.3-4-1.5
		c-1.1-2.1-2.6-3.9-4.2-6.2c0.5-1.2,1.4-2.3,3.7-2.6c5.1-0.8,7.2-4,8-9.9C260.3,52.6,260.2,51.9,260.2,50.6z"/>
	<path id="XMLID_1207_" class="st21" d="M195.4,67.9c1.8-0.3,3.7-1.1,5.4-0.9c3.9,0.6,7.7,1.6,11.5,2.5c1.5,0.3,2.9,0.7,4.4,0.9
		c-2.6-1.5-5.2-2.9-7.9-4.4c0.1-0.3,0.2-0.5,0.3-0.8c2.7-1,5,3.4,7.7,1c3.8,0.6,7.5,1.2,11.6,1.8c-1.3,0.6-2.3,1.2-3.3,1.7
		c0,0.2,0.1,0.4,0.1,0.7c2.2-0.3,4.3-0.5,6.3-0.8c-0.4,1.3-2.5,2.8-4.9,3.3c-6.4,1.2-12.3-0.3-18.3-2.4c-2-0.7-4.1-0.9-6.2-1.2
		c-2.2-0.3-4.5-0.4-6.7-0.6C195.4,68.6,195.4,68.2,195.4,67.9z"/>
	<path id="XMLID_1205_" class="st27" d="M333,324.8c9.5-16.5,33.2-20.8,48-7.8c-2.5,2.7-5,5.4-7.7,8.3c-5-3.7-10.5-5.2-16.5-4.1
		c-6.1,1-10.7,4.3-14.2,9.5C339.4,328.6,336.3,326.7,333,324.8z"/>
	<path id="XMLID_1204_" class="st17" d="M331.6,327.6c3.2,1.9,6.3,3.9,9.6,5.9c-3.1,8.3-1.8,15.8,3.9,22.6c-2.6,2.8-5.1,5.5-7.6,8.3
		C328,356,325.1,337.8,331.6,327.6z"/>
	<path id="XMLID_1203_" class="st14" d="M354.6,345.9c2.1,0.8,3.8,1.7,5.5,2c0.9,0.1,2-0.9,3.1-1.5c-0.6-0.9-1-2-1.9-2.6
		c-1.3-1-2.9-1.4-4.2-2.3c-3.7-2.6-3.8-7.6,0.1-9.9c2.1-1.2,3.3-2.4,2.6-5c1.1,0,1.9,0,3,0c0,1.1,0,2.2,0,3.3
		c1.8,0.7,3.5,1.4,5.4,2.1c-0.7,1.4-1.3,2.6-1.9,3.7c-1.6-0.4-3-1-4.5-1c-0.8,0-1.7,0.8-2.5,1.2c0.5,0.8,0.8,1.8,1.5,2.3
		c1.2,0.8,2.7,1.2,4,1.9c2.4,1.4,4.2,3.2,3.9,6.3c-0.3,3-2,4.8-4.9,5.6c-0.3,0.1-0.5,0.2-0.9,0.4c0,1.2,0,2.3,0,3.7
		c-1,0-1.8,0-2.9,0c-0.1-1.1-0.1-2.2-0.2-3.2c-2.5-0.9-4.9-1.8-7.6-2.8C353.2,348.3,353.9,347,354.6,345.9z"/>
	<path id="XMLID_1201_" class="st11" d="M357.5,385.8c0,0.2,0,0.4,0,0.7c-4.9-0.9-9.7-1.9-14.6-2.8c-0.6-0.1-1.2-0.7-1.8-1.1
		c0,0,0,0,0,0c2.4,0.7,4.7,1.5,7.1,2C351.3,385.1,354.4,385.4,357.5,385.8z"/>
	<path id="XMLID_1200_" class="st25" d="M384.1,304.6c1,0.7,2.1,1.4,3.1,2.1c-0.1,0.1-0.1,0.1-0.2,0.2c-1-0.7-2.1-1.4-3.1-2.2
		C384,304.8,384,304.7,384.1,304.6z"/>
	<path id="XMLID_1199_" class="st11" d="M338,381.2c1,0.4,2.1,0.9,3.1,1.3c0,0,0,0,0,0C340.1,382.1,339.1,381.6,338,381.2L338,381.2
		z"/>
	<path id="XMLID_1198_" class="st25" d="M381.5,303.2c0.9,0.5,1.7,0.9,2.6,1.4c-0.1,0.1-0.1,0.1-0.2,0.2c-0.9-0.5-1.7-0.9-2.6-1.4
		C381.4,303.4,381.4,303.3,381.5,303.2z"/>
	<path id="XMLID_1197_" class="st11" d="M338.1,381.2c-0.7-0.2-1.4-0.4-2.1-0.7c0.1-0.2,0.2-0.4,0.3-0.6
		C336.9,380.4,337.5,380.8,338.1,381.2L338.1,381.2z"/>
	<path id="XMLID_1196_" class="st25" d="M391.5,310.5c-0.6-0.6-1.2-1.1-1.8-1.7l0.1-0.2c0.6,0.6,1.2,1.2,1.8,1.8
		C391.6,310.4,391.5,310.5,391.5,310.5z"/>
	<path id="XMLID_1195_" class="st11" d="M317.6,361.9c0.3,0.4,0.6,0.7,0.9,1.1c-0.1,0.1-0.2,0.1-0.3,0.2c-0.3-0.4-0.6-0.7-0.9-1.1
		C317.4,362.1,317.5,362,317.6,361.9z"/>
	<path id="XMLID_1194_" class="st25" d="M389.7,308.8c-0.6-0.4-1.2-0.9-1.8-1.3c0,0,0.1-0.2,0.1-0.2c0.6,0.4,1.2,0.9,1.8,1.3
		C389.8,308.6,389.7,308.8,389.7,308.8z"/>
	<path id="XMLID_1193_" class="st25" d="M392.8,311.4c-0.4-0.3-0.8-0.6-1.3-1c0,0,0.1-0.1,0.1-0.1c0.4,0.3,0.9,0.6,1.3,0.9
		C392.9,311.3,392.8,311.4,392.8,311.4z"/>
	<path id="XMLID_1192_" class="st25" d="M387.2,306.8c0.3,0.2,0.5,0.3,0.8,0.5c0,0-0.1,0.2-0.1,0.2c-0.3-0.2-0.6-0.3-0.9-0.5
		C387.1,306.9,387.2,306.8,387.2,306.8z"/>
	<path id="XMLID_1191_" class="st11" d="M316.8,360.4c0.1,0.2,0.2,0.3,0.3,0.5C317,360.8,316.9,360.6,316.8,360.4
		C316.8,360.4,316.8,360.4,316.8,360.4z"/>
	<path id="XMLID_1190_" class="st25" d="M392.9,311.3c0,0.1,0.1,0.3,0.1,0.4c-0.1-0.1-0.2-0.2-0.3-0.3
		C392.8,311.4,392.9,311.3,392.9,311.3z"/>
	<path id="XMLID_1175_" class="st22" d="M90.5,54.9c0,17.2-14.1,31.2-31.3,31.2C41.8,86.1,27.9,72,27.9,54.5
		C28,37.2,42,23.4,59.5,23.5C76.6,23.5,90.5,37.7,90.5,54.9z M59.6,50.5c-0.6,0.2-1.1,0.3-1.7,0.6c-2.1,1.1-3,3.5-2.1,5.6
		c1,2.1,3.3,3.1,5.5,2.3c1.8-0.6,2.6-2,2.9-3.8c6-2.2,12-4.5,17.9-6.6c1.2-0.5,1.8-1,1.3-2.4c-0.5-1.3-1.1-1.7-2.5-1.2
		c-6,2.3-12.1,4.6-18.1,6.9c-0.4-0.3-0.8-0.6-1.2-0.9c2.3-7,4.6-14,6.9-21.1c-0.8-0.2-1.4-0.4-2.2-0.6
		C64.3,36.3,61.9,43.4,59.6,50.5z M73.4,30.1c-0.8,1.1-1.8,1.8-1.8,2.4c0,0.7,1.1,1.3,1.6,1.9c0.7-0.6,1.7-1.2,1.9-1.9
		C75.3,32,74.3,31.2,73.4,30.1z M35.5,55.5c-1.3-0.9-2-1.8-2.7-1.7c-0.7,0.1-1.3,1.1-1.9,1.7c0.6,0.6,1.2,1.6,1.9,1.7
		C33.5,57.3,34.2,56.4,35.5,55.5z M45.3,79.8c0.9-1.2,1.8-1.9,1.7-2.6C47,76.6,46,76,45.4,75.4c-0.6,0.6-1.7,1.1-1.7,1.8
		C43.5,77.8,44.5,78.6,45.3,79.8z M85.9,52.5C85,53.7,84,54.4,84.1,55c0,0.7,1.1,1.8,1.7,1.8c0.6,0,1.7-1,1.8-1.7
		C87.7,54.5,86.7,53.7,85.9,52.5z M47.6,32.6c-1.3-0.9-2-1.8-2.6-1.7c-0.7,0.1-1.3,1.1-1.9,1.7c0.6,0.6,1.1,1.6,1.8,1.7
		C45.5,34.4,46.3,33.5,47.6,32.6z M84.3,42c-1.2-0.9-2-1.8-2.6-1.8c-0.7,0.1-1.3,1.1-1.9,1.7c0.6,0.6,1.1,1.6,1.8,1.7
		C82.3,43.7,83,42.8,84.3,42z M38.2,42.4c-1.2-0.9-2-1.8-2.6-1.8c-0.7,0.1-1.7,1-1.8,1.6c0,0.6,1,1.7,1.7,1.8
		C36.2,44.1,37,43.2,38.2,42.4z M85,67.7c-1.2-0.9-1.9-1.8-2.6-1.7c-0.7,0.1-1.3,1-1.9,1.6c0.6,0.6,1.1,1.7,1.8,1.7
		C83,69.4,83.7,68.5,85,67.7z M75.7,77.2c-1.2-0.9-1.9-1.8-2.6-1.8c-0.7,0.1-1.3,1-1.9,1.6c0.6,0.6,1.1,1.6,1.8,1.7
		C73.6,78.8,74.4,78,75.7,77.2z M58.8,25.6c-0.8,1.3-1.7,2-1.5,2.7c0.1,0.7,1.1,1.2,1.8,1.8c0.6-0.6,1.6-1.2,1.6-1.9
		C60.7,27.5,59.7,26.8,58.8,25.6z M59.5,84.3c0.8-1.2,1.7-1.9,1.7-2.6c-0.1-0.6-1.1-1.6-1.7-1.6c-0.6,0-1.6,1-1.7,1.6
		C57.7,82.4,58.6,83.1,59.5,84.3z M39.6,68c-1.2-1-1.9-1.9-2.5-1.9c-0.7,0-1.3,1-1.9,1.5c0.6,0.6,1,1.7,1.7,1.8
		C37.4,69.5,38.3,68.7,39.6,68z"/>
	<path id="XMLID_1174_" class="st8" d="M58.7,98.7c0,0.3-0.1,0.5-0.1,0.8c-5.3-0.5-10.6-1-15.5-3.4c0.1-0.1,0.1-0.1,0.2-0.2
		c1.8,0.5,3.5,1,5.3,1.3C51.9,97.8,55.3,98.2,58.7,98.7z"/>
	<path id="XMLID_1173_" class="st8" d="M42.1,95.6c-1.5-0.6-3.1-1.1-4.6-1.7c0.1-0.3,0.2-0.6,0.4-0.8c1.5,0.8,3,1.5,4.5,2.3
		C42.3,95.5,42.2,95.6,42.1,95.6z"/>
	<path id="XMLID_1172_" class="st10" d="M18.4,73c0.3,0.7,0.6,1.5,0.9,2.2l0,0C19,74.5,18.7,73.7,18.4,73L18.4,73z"/>
	<path id="XMLID_1171_" class="st10" d="M19.7,76.1c-0.1-0.3-0.3-0.6-0.4-0.9l0,0C19.4,75.5,19.5,75.8,19.7,76.1L19.7,76.1z"/>
	<path id="XMLID_1170_" class="st8" d="M42.3,95.4c0.3,0.2,0.6,0.3,0.9,0.5C43.1,96,43.1,96,43,96.1c-0.3-0.2-0.6-0.3-0.9-0.5
		C42.2,95.6,42.3,95.5,42.3,95.4z"/>
	<path id="XMLID_1169_" class="st10" d="M19.6,76.1c0.1,0,0.2,0.1,0.2,0.1c0,0-0.1,0-0.1,0C19.7,76.2,19.7,76.1,19.6,76.1L19.6,76.1
		z"/>
	<path id="XMLID_1168_" class="st10" d="M18.4,73c-0.2-0.1-0.3-0.3-0.5-0.4c0,0,0,0,0,0C18,72.7,18.2,72.9,18.4,73L18.4,73z"/>
	<path id="XMLID_1154_" class="st2" d="M206.2,143c2.4-0.1,4.7-0.2,7.1-0.2c0.6,12.3,1.3,24.7,1.7,37c0.2,4.5-0.2,9.1-0.3,13.7
		c0,1-0.4,1.9-0.7,2.9c-0.2,0-0.4,0-0.6,0c-0.3-0.8-0.7-1.6-0.8-2.5c-0.6-4.1-1.4-8.1-5.3-10.7c-0.6-0.4-1.1-1.9-0.9-2.8
		C208.4,167.9,206.9,155.4,206.2,143z"/>
	<path id="XMLID_1153_" class="st11" d="M184.9,213.3c-2.3-6.1-4.4-12.2-5-18.7c-0.2-2.2,0.9-4.5,1.7-6.7c1.4-4.1,3-8.1,4.4-12.2
		c0.2,0,0.4,0,0.6,0c-0.3,12.5-0.6,25-1,37.5C185.4,213.2,185.1,213.3,184.9,213.3z"/>
	<path id="XMLID_1152_" class="st8" d="M243,236.2c-0.1,0.5-0.3,1.1-0.4,1.6c-1.2,0-2.4,0-3.7,0c-0.4,0-0.8,0.1-1.1,0.1
		c-0.3,0.7-0.9,1.3-0.9,2c-0.2,1.3-0.1,2.6-0.1,3.9c-1.1,0-2.2,0-3.3,0c0.1-3.2,0.1-6.4,0.2-9.5c3.6-2.4,5.8-4.8,6.5-7.2
		c1.3,0,2.7,0,4.1,0C243.3,230,241.8,232.9,243,236.2z"/>
	<path id="XMLID_1151_" class="st11" d="M237.3,211.3c-2.4-11.8-2.8-23.7-1.4-35.7c0.7,11.9,1.3,23.8,2,35.7
		C237.7,211.3,237.5,211.3,237.3,211.3z"/>
	<path id="XMLID_1150_" class="st9" d="M148.8,166.7c-0.6-0.3-1.7-0.5-1.7-0.8c-0.1-3-0.1-6-0.1-9c0.2,0,0.4,0,0.6,0
		c0,2.8,0,5.5,0,8.3c0.1,0,0.3,0,0.4,0.1c0.7-3.2,1.4-6.5,2.2-9.7c0.3,0.1,0.7,0.1,1,0.2C150.4,159.4,149.6,163.1,148.8,166.7
		L148.8,166.7z"/>
	<path id="XMLID_1149_" class="st9" d="M150.1,165.9c0.4-1.2,0.8-2.3,1.3-3.4c1.5-3.3,1.4-6.7,1.3-10.1c0-0.8,0-1.7,0.2-2.5
		c1.7,3,1.5,8.6-0.3,12.2C152,163.4,151,164.6,150.1,165.9L150.1,165.9z"/>
	<path id="XMLID_1148_" class="st9" d="M149.7,166.3c-0.1,0.4-0.2,0.7-0.3,1.1c-0.2-0.2-0.4-0.4-0.6-0.7l0,0
		C149.1,166.6,149.4,166.4,149.7,166.3L149.7,166.3z"/>
	<path id="XMLID_1147_" class="st9" d="M150.1,165.9c-0.1,0.1-0.3,0.3-0.4,0.4l0,0C149.8,166.2,150,166,150.1,165.9
		C150.1,165.9,150.1,165.9,150.1,165.9z"/>
	<path id="XMLID_1144_" class="st3" d="M250.5,264.4c-0.3,0.2-0.6,0.3-0.9,0.5c0.2-0.7,0.3-1.5,0.6-2.4c-1.2,0.8-2,1.5-3.1,2.3
		c1,0.1,1.6,0.1,2.3,0.2c-2.4,0.1-4.7,0.3-7.1,0.2c-2.1,0-1.2-1.9-1.6-3c0.1,0,0.2,0,0.2,0c1-1.1,2-2.2,3-3.3
		c0.6-0.1,1.3-0.2,1.9-0.2c4.6-0.1,4.6-0.1,4.9,4.3c0,0.3,0,0.6,0,0.9C250.5,264.2,250.5,264.3,250.5,264.4z M243.2,261.8
		c0,0.2,0,0.4,0,0.6c1.6,0,3.1,0,4.7,0c0-0.2,0-0.4,0-0.6C246.4,261.8,244.8,261.8,243.2,261.8z"/>
	<path id="XMLID_1143_" class="st1" d="M249.5,239.9c0.5,0,1,0,1.5,0c0.2,0.1,0.3,0.2,0.5,0.2c0,1.2,0,2.3,0,3.5
		c-0.4,0.1-0.8,0.1-1.1,0.2c-3.2,0-6.5,0-9.7,0c-0.2,0-0.3,0-0.5,0c-0.4,0-0.7,0-1.1-0.1c0-1.2,0-2.4,0-3.6c0.1,0,0.2,0,0.2-0.1
		c1.1,0,2.2,0,3.2-0.1c0.2,0,0.5,0,0.7,0c0.3,0,0.5-0.1,0.8-0.1C245.9,241.4,247.7,240.6,249.5,239.9z"/>
	<path id="XMLID_1142_" class="st22" d="M239.2,240.1c0,1.2,0,2.4,0,3.6c-0.5,0.6-0.9,1.1-1.4,1.6c-0.4-0.6-0.7-1.1-1.1-1.7
		c0-1.3-0.1-2.6,0.1-3.9c0.1-0.7,0.6-1.3,0.9-2c0.4,0,0.8-0.1,1.1-0.1c1.2,0,2.4,0,3.7,0c0.5,0.7,1,1.3,1.5,2
		c-0.3,0-0.5,0.1-0.8,0.1c-0.2,0-0.5,0-0.7,0c-1.1,0-2.2,0-3.2,0.1c0,0-0.2,0-0.2,0L239.2,240.1z"/>
	<path id="XMLID_1141_" class="st8" d="M243.8,259c-1,1.1-2,2.2-3,3.3c0.3-1,0.5-2.1,0.8-3.1c0.3-0.1,0.6-0.1,0.9-0.2
		C242.9,259,243.4,259,243.8,259z"/>
	<path id="XMLID_1140_" class="st21" d="M250.5,243.8c0.4-0.1,0.8-0.1,1.1-0.2c0,0.1,0,0.3,0,0.4C251.2,244,250.8,243.9,250.5,243.8
		z"/>
	<path id="XMLID_1139_" class="st3" d="M242.5,259c-0.3,0.1-0.6,0.1-0.9,0.2C241.9,259.1,242.2,259,242.5,259z"/>
	<path id="XMLID_1138_" class="st21" d="M240.3,243.8c0.2,0,0.3,0,0.5,0C240.6,243.8,240.5,243.8,240.3,243.8z"/>
	<path id="XMLID_1137_" class="st8" d="M249.3,265c-0.7-0.1-1.3-0.1-2.3-0.2c1.1-0.8,2-1.4,3.1-2.3c-0.2,0.9-0.4,1.7-0.6,2.4
		c0,0-0.1,0.1-0.1,0.1L249.3,265z"/>
	<path id="XMLID_1136_" class="st16" d="M250.5,264.4c0-0.1,0-0.3,0.1-0.4c0,0.1,0.1,0.2,0.1,0.3
		C250.7,264.4,250.6,264.4,250.5,264.4z"/>
	<path id="XMLID_1135_" class="st8" d="M187.5,306.1c0-0.3-0.1-0.6-0.1-0.9C187.4,305.5,187.4,305.8,187.5,306.1z"/>
	<path id="XMLID_1134_" class="st21" d="M251.6,240.1c-0.2-0.1-0.3-0.2-0.5-0.2C251.2,240,251.4,240,251.6,240.1z"/>
	<path id="XMLID_1133_" class="st2" d="M310.7,200c0-8.9,7.3-16.3,16.3-16.4c8.9,0,16.4,7.5,16.3,16.3c-0.1,8.9-7.4,16.2-16.2,16.2
		C318.1,216.3,310.7,209,310.7,200z"/>
	<path id="XMLID_1132_" class="st2" d="M382.8,172.9c0,5.1-4.1,9.3-9.2,9.3c-5.1,0-9.1-4-9.2-9c-0.1-5.1,4-9.4,9-9.4
		C378.5,163.7,382.8,167.8,382.8,172.9z"/>
	<path id="XMLID_1129_" class="st2" d="M379.3,198.1c8.5,0,15.2,6.6,15.3,15c0.1,8.3-6.7,15.1-15,15.1c-8.5,0-15.2-6.6-15.3-15
		C364.2,204.9,371,198.1,379.3,198.1z M389,213.3c0-5.4-4.2-9.8-9.6-9.8c-5.2,0-9.6,4.3-9.6,9.5c0,5.4,4.3,9.8,9.6,9.8
		C384.6,222.8,389,218.5,389,213.3z"/>
	<path id="XMLID_1128_" class="st2" d="M360.6,214c1-0.2,1.8-0.3,2.8-0.4c0.3,1.6,0.6,3.1,0.9,4.8c-0.9,0.2-1.8,0.3-3,0.5
		C361,217.3,360.8,215.7,360.6,214z"/>
	<path id="XMLID_1127_" class="st2" d="M364.7,223.5c0.1-0.2,0.3-0.3,0.4-0.5c0.3-0.3,0.7-0.5,1.1-0.8c1.1,1.2,2.2,2.3,3.4,3.7
		c-0.7,0.5-1.4,1.1-2.3,1.7c-0.7-0.7-1.7-1.4-2.4-2.3C364.6,224.8,364.8,224.1,364.7,223.5z"/>
	<path id="XMLID_1126_" class="st2" d="M363.8,202.7c1,0.5,1.7,0.8,2.5,1.3c-0.7,1.5-1.4,2.9-2.2,4.4c-0.8-0.4-1.5-0.7-2.4-1.2
		C362.4,205.6,363.1,204.2,363.8,202.7z"/>
	<path id="XMLID_1125_" class="st2" d="M383.5,228.7c1.5-0.7,2.9-1.3,4.5-2c0.3,0.7,0.7,1.5,1.2,2.4c-1.5,0.6-2.9,1.2-4.5,1.9
		C384.2,230.3,383.9,229.5,383.5,228.7z"/>
	<path id="XMLID_1124_" class="st2" d="M394,224.6c-0.8-0.5-1.5-0.9-2.2-1.3c0.8-1.4,1.6-2.7,2.5-4.2c0.7,0.4,1.3,0.8,2.2,1.2
		C395.7,221.8,394.9,223.1,394,224.6z"/>
	<path id="XMLID_1123_" class="st2" d="M386.1,196.1c-0.3,0.8-0.5,1.4-0.8,2.1c-1.6-0.4-3.2-0.7-4.8-1.1c0.3-0.9,0.6-1.7,0.9-2.6
		C383.1,195.1,384.5,195.6,386.1,196.1z"/>
	<path id="XMLID_1122_" class="st2" d="M372.8,230.3c0.2-0.9,0.4-1.6,0.6-2.3c1.6,0.4,3.1,0.7,4.7,1.1c-0.2,0.7-0.3,1.4-0.5,2.3
		C376,231.1,374.6,230.7,372.8,230.3z"/>
	<path id="XMLID_1121_" class="st2" d="M392.4,199.9c0.7,1.1,1.4,2.1,2.2,3.3c-0.5,0.4-1,0.9-1.6,1.5c-1.1-1.2-2.1-2.4-3.6-4.1
		C390.7,200.4,391.6,200.1,392.4,199.9L392.4,199.9z"/>
	<path id="XMLID_1120_" class="st2" d="M373.9,195.7c0.4,0.7,0.7,1.2,1,1.9c-1.5,0.7-2.9,1.4-4.4,2.1c-0.3-0.6-0.6-1.2-1-1.9
		C371,197.2,372.4,196.5,373.9,195.7z"/>
	<path id="XMLID_1119_" class="st2" d="M397.2,214.5c-0.7,0-1.3-0.1-1.9-0.1c-0.1-1.5-0.2-3-0.2-4.6c0.7,0,1.4-0.1,2.2-0.1
		C397.2,211.2,397.2,212.7,397.2,214.5z"/>
	<path id="XMLID_1118_" class="st3" d="M347.3,65.9c-0.2,0.4-0.4,0.8-0.6,1.2c-1,0.6-2,1.3-3,1.9c0.8-0.8,1.6-1.7,2.4-2.5
		C346.6,66.3,346.9,66.1,347.3,65.9z"/>
	<path id="XMLID_1117_" class="st3" d="M339,73.4c-1,0.9-2.1,1.8-3.1,2.7C336.9,75.2,337.9,74.3,339,73.4z"/>
	<path id="XMLID_1116_" class="st3" d="M335.4,76.5c-0.5,0.5-1,1.1-1.5,1.6C333.6,77.2,333.9,76.8,335.4,76.5z"/>
	<path id="XMLID_1115_" class="st3" d="M341.2,71.2c-0.3,0.5-0.7,1.1-1,1.6c-0.3,0.1-0.5,0.1-0.8,0.2
		C340,72.4,340.6,71.8,341.2,71.2z"/>
	<path id="XMLID_1114_" class="st3" d="M343.7,69.8c-0.2,0.1-0.3,0.3-0.5,0.4c-0.4,0.2-0.8,0.4-1.2,0.6c0.6-0.6,1.2-1.2,1.8-1.8
		C343.8,69.3,343.7,69.5,343.7,69.8z"/>
	<path id="XMLID_1113_" class="st3" d="M342.1,70.8c-0.3,0.2-0.6,0.3-0.9,0.5C341.4,71.1,341.7,70.9,342.1,70.8z"/>
	<path id="XMLID_1112_" class="st3" d="M335.9,76.1c-0.2,0.2-0.3,0.3-0.5,0.5C335.5,76.4,335.7,76.2,335.9,76.1z"/>
	<path id="XMLID_1111_" class="st3" d="M339.4,73c-0.2,0.2-0.3,0.3-0.5,0.5C339.1,73.3,339.2,73.1,339.4,73z"/>
	<path id="XMLID_1110_" class="st21" d="M364.3,60.8c0.1-0.2,0.3-0.3,0.4-0.5c0.3-0.3,0.6-0.6,0.9-0.9c0.1-0.1,0.3-0.3,0.4-0.4
		c0.2,0,0.5-0.1,0.7-0.1c-0.5,0.7-0.9,1.4-1.4,2.1c-0.4,0.4-0.9,0.9-1.3,1.3c-1.2,1.1-2.3,2.2-3.5,3.2c-0.2-0.2-0.3-0.3-0.5-0.5
		c0.3-0.4,0.7-0.8,1-1.2c0.3-0.3,0.6-0.6,0.9-0.9c0.1-0.1,0.3-0.3,0.4-0.4c0.3-0.3,0.6-0.6,0.9-0.9c0.2-0.1,0.3-0.3,0.5-0.4
		C364,61.1,364.1,60.9,364.3,60.8z"/>
	<path id="XMLID_1109_" class="st21" d="M386.6,39.7c-0.1,0.2-0.3,0.3-0.4,0.5c-0.2,0.1-0.3,0.3-0.5,0.4c-0.1,0.1-0.3,0.3-0.4,0.4
		c-0.1,0.1-0.3,0.3-0.4,0.4c-0.3,0-0.5,0.1-0.8,0.1c0.5-0.6,0.9-1.1,1.4-1.7c0.6-0.5,1.1-0.9,1.7-1.4c0,0.3-0.1,0.5-0.1,0.8
		C386.9,39.5,386.7,39.6,386.6,39.7z"/>
	<path id="XMLID_1108_" class="st21" d="M381.7,44.6c-0.1,0.1-0.3,0.3-0.4,0.4c-0.3,0-0.5,0.1-0.8,0.1c0.7-0.7,1.5-1.5,2.2-2.2
		c0,0.3-0.1,0.5-0.1,0.8C382.3,44,382,44.3,381.7,44.6z"/>
	<path id="XMLID_1107_" class="st21" d="M372.9,53.4c-0.1,0.1-0.3,0.3-0.4,0.4c-0.1,0.1-0.3,0.3-0.4,0.4c-0.1,0.1-0.3,0.3-0.4,0.4
		c-0.3,0-0.5,0.1-0.8,0.1c0.7-0.7,1.5-1.5,2.2-2.2C372.9,52.9,372.9,53.2,372.9,53.4z"/>
	<path id="XMLID_1106_" class="st21" d="M379.1,47.3c-0.1,0.1-0.3,0.3-0.4,0.4c-0.1,0.1-0.3,0.3-0.4,0.4c-0.3,0-0.5,0.1-0.8,0.1
		c0.6-0.6,1.2-1.2,1.8-1.8C379.1,46.7,379.1,47,379.1,47.3z"/>
	<path id="XMLID_1105_" class="st21" d="M368.9,57.4c-0.1,0.1-0.3,0.3-0.4,0.4c-0.1,0.1-0.3,0.3-0.4,0.4c-0.3,0-0.5,0.1-0.8,0.1
		c0.6-0.6,1.2-1.2,1.7-1.7C369,56.9,368.9,57.2,368.9,57.4z"/>
	<path id="XMLID_1104_" class="st21" d="M376.5,49.1c0,0.3-0.1,0.5-0.1,0.8c-0.3,0-0.5,0.1-0.8,0.1
		C375.9,49.7,376.2,49.4,376.5,49.1z"/>
	<path id="XMLID_1103_" class="st21" d="M377.3,49c-0.3,0-0.5,0.1-0.8,0.1c0.3-0.3,0.6-0.6,0.9-0.9C377.4,48.5,377.3,48.8,377.3,49z
		"/>
	<path id="XMLID_1102_" class="st21" d="M380,46.4c-0.3,0-0.5,0.1-0.8,0.1c0.3-0.3,0.6-0.6,0.9-0.9C380,45.8,380,46.1,380,46.4z"/>
	<path id="XMLID_1101_" class="st21" d="M370.8,54.9c-0.3,0.3-0.6,0.6-0.9,0.9C370.2,55.5,370.5,55.2,370.8,54.9z"/>
	<path id="XMLID_1100_" class="st21" d="M373.9,51.8c-0.3,0.3-0.6,0.6-0.9,0.9C373.3,52.4,373.6,52.1,373.9,51.8z"/>
	<path id="XMLID_1099_" class="st21" d="M383.5,42.8c-0.3,0-0.5,0.1-0.8,0.1c0.3-0.3,0.6-0.6,0.9-0.9
		C383.6,42.3,383.5,42.6,383.5,42.8z"/>
	<path id="XMLID_1098_" class="st21" d="M375.6,50c-0.1,0.1-0.3,0.3-0.4,0.4C375.3,50.3,375.5,50.2,375.6,50z"/>
	<path id="XMLID_1097_" class="st21" d="M374.7,50.9c-0.1,0.1-0.3,0.3-0.4,0.4C374.5,51.2,374.6,51,374.7,50.9z"/>
	<path id="XMLID_1096_" class="st21" d="M380.5,45.1c-0.2,0.2-0.3,0.3-0.5,0.5C380.2,45.4,380.4,45.3,380.5,45.1z"/>
	<path id="XMLID_1095_" class="st21" d="M384,41.6c-0.2,0.2-0.3,0.3-0.5,0.5C383.7,41.9,383.9,41.7,384,41.6z"/>
	<path id="XMLID_1094_" class="st21" d="M367.2,58.4c-0.1,0.1-0.3,0.3-0.4,0.4C366.9,58.7,367.1,58.6,367.2,58.4z"/>
	<path id="XMLID_1093_" class="st21" d="M369.4,56.2c-0.1,0.1-0.3,0.3-0.4,0.4C369.2,56.5,369.3,56.3,369.4,56.2z"/>
	<path id="XMLID_1092_" class="st21" d="M369.9,55.8c-0.1,0.1-0.3,0.3-0.4,0.4C369.6,56,369.7,55.9,369.9,55.8z"/>
	<path id="XMLID_1091_" class="st21" d="M374.3,51.3c-0.1,0.1-0.3,0.3-0.4,0.4C374,51.6,374.2,51.5,374.3,51.3z"/>
	<path id="XMLID_1090_" class="st21" d="M375.2,50.5c-0.1,0.1-0.3,0.3-0.4,0.4C374.9,50.7,375,50.6,375.2,50.5z"/>
	<path id="XMLID_1089_" class="st3" d="M351.9,62.3c-0.7,0.7-1.4,1.4-2.1,2.1c-0.3,0.1-0.5,0.1-0.8,0.2c0.8-0.9,1.7-1.9,2.5-2.8
		C351.7,62,351.8,62.2,351.9,62.3z"/>
	<path id="XMLID_1088_" class="st3" d="M355.5,62.2c0.1,0.4,0.2,0.7,0.3,1.1c-0.2-0.3-0.3-0.5-0.5-0.8
		C355.2,62.3,355.3,62.3,355.5,62.2z"/>
	<path id="XMLID_1087_" class="st21" d="M388.3,38.4c-0.4,0-0.8,0.1-1.2,0.1c0.2-0.1,0.4-0.3,0.6-0.4
		C387.9,38.2,388.1,38.3,388.3,38.4z"/>
	<path id="XMLID_1086_" class="st3" d="M356.9,64.3c0.1,0.2,0.1,0.4,0.2,0.6c-0.1,0.1-0.3,0.1-0.4,0.2c-0.3-0.6-0.6-1.2-0.9-1.9
		C356.1,63.6,356.5,64,356.9,64.3z"/>
	<path id="XMLID_1085_" class="st3" d="M349.1,64.6c-0.6,0.4-1.2,0.9-1.8,1.3C347.9,65.5,348.5,65,349.1,64.6z"/>
	<path id="XMLID_1079_" class="st14" d="M51.9,311.4c-3-0.7-4.8-2.7-4.9-5.6c-0.4-7.3,0.4-10.8,9.7-10.6c14.1,0.3,28.1,0.2,42.2,0
		c5.9-0.1,9.5,1.5,8.9,9c0,0.4,0,0.9,0,1.3c-0.1,3.3-2.1,5.4-5.4,5.9c-0.7-0.2-1.3-0.5-2-0.5c-15.5,0-30.9,0-46.4,0
		C53.3,310.9,52.6,311.2,51.9,311.4z M84.6,298.9c0,2.1,6.7,7.8,8.8,7.8C90.3,303.9,87.4,301.4,84.6,298.9z M68.3,299.1
		c-0.3,0.3-0.5,0.6-0.8,0.8c2.9,2.5,5.7,5,8.6,7.5c0.3-0.3,0.5-0.6,0.8-0.9C74.1,304.1,71.2,301.6,68.3,299.1z M76.7,299
		c0,2,6.7,7.8,9,7.8C82.4,304,79.6,301.5,76.7,299z M59.9,299.3c0,2.1,6.7,7.8,8.9,7.8C65.6,304.3,62.8,301.8,59.9,299.3z"/>
	<path id="XMLID_1078_" class="st8" d="M56.5,335.1c-0.4,0-0.9,0-1.3,0c-6.2,0.3-6.4-3.5-5.7-7.8c0.3-2,2-2.9,3.9-3
		c2.1-0.2,4.3-0.2,6.4,0c3,0.2,4.3,2.2,4.1,6.1c-0.1,2.8-1.7,4.6-4.5,4.7C58.4,335.2,57.4,335.1,56.5,335.1
		C56.5,335.1,56.5,335.1,56.5,335.1z"/>
	<path id="XMLID_1077_" class="st14" d="M67.7,315.2c5,0,10,0,15,0c1.5,0,2.9-0.1,2.9,2c0,2.1-1.2,2.2-2.8,2.2
		c-10.2,0-20.5,0-30.7,0c-1.5,0-2.7-0.2-2.7-2c0-2,1.2-2.2,2.8-2.2C57.3,315.2,62.5,315.2,67.7,315.2z"/>
	<path id="XMLID_1076_" class="st8" d="M99.6,335.1c-0.4,0-0.7,0-1.1,0c-5.1,0-7.3-3-5.8-7.9c0.6-1.9,2.1-2.8,4-2.9
		c1.9-0.1,3.8-0.1,5.7,0c3.3,0.2,4.5,1.9,4.4,6.2c-0.1,3-1.5,4.5-4.6,4.6C101.3,335.2,100.5,335.1,99.6,335.1z"/>
	<path id="XMLID_1075_" class="st8" d="M99.6,364.4c-0.4,0-0.9,0-1.3,0c-4.9,0-6.7-2.2-5.9-7.1c0.4-2.1,1.9-3.5,4.1-3.6
		c2.1-0.1,4.1-0.1,6.2,0c2.5,0.1,4,1.8,4.2,4.2c0.3,4.7-1.1,6.4-4.8,6.5C101.2,364.4,100.4,364.4,99.6,364.4z"/>
	<path id="XMLID_1074_" class="st8" d="M56.3,364.4c-0.4,0-0.9,0-1.3,0c-4.8,0-6.3-1.6-6-6.4c0.2-2.6,1.8-4.2,4.4-4.3
		c2-0.1,4-0.1,6,0c2.5,0.1,4,1.7,4.1,4.2c0,0.8,0,1.6,0,2.4c-0.1,2.4-1.7,3.9-4.1,4C58.3,364.4,57.3,364.4,56.3,364.4z"/>
	<path id="XMLID_1073_" class="st8" d="M99.5,338.7c0.4,0,0.9,0,1.3,0c5.8-0.5,6.3,3,5.9,7.1c-0.2,2.1-1.8,3.5-4.1,3.6
		c-2,0.1-4.1,0.1-6.2,0c-3-0.2-4.2-2-4.1-6c0.1-3,1.5-4.6,4.4-4.6C97.6,338.6,98.6,338.7,99.5,338.7z"/>
	<path id="XMLID_1072_" class="st8" d="M56.1,349.4c-0.5,0-1,0-1.5,0c-4.8,0-7.3-4.1-5-8.3c0.6-1.1,2.1-2.1,3.4-2.3
		c2.1-0.4,4.4-0.2,6.6-0.1c2.4,0.1,3.8,1.5,3.9,3.9C63.7,346.9,63.5,349.8,56.1,349.4z"/>
	<path id="XMLID_1071_" class="st8" d="M78,335.2c-0.4,0-0.9,0-1.3,0c-6,0.5-6.3-3.8-5.4-7.9c0.4-1.7,1.8-2.7,3.6-2.8
		c2.2-0.1,4.4-0.1,6.6,0c2.7,0.1,4,2,4,5.3c0,3.3-1.3,5.1-4,5.3C80.3,335.3,79.2,335.2,78,335.2z"/>
	<path id="XMLID_1070_" class="st8" d="M78,364.5c-0.5,0-1,0-1.5,0c-4.5,0-6-1.6-5.8-6.2c0.1-2.5,1.7-4.3,4.3-4.4
		c2.1-0.1,4.1-0.1,6.2,0c2.5,0.1,4,1.7,4.1,4.3c0,0.8,0,1.6,0,2.4c-0.2,2.4-1.7,3.9-4.1,3.9C80,364.5,79,364.5,78,364.5
		C78,364.5,78,364.5,78,364.5z"/>
	<path id="XMLID_1069_" class="st8" d="M78.1,338.8c0.4,0,0.9,0,1.3,0c4.9,0,7.1,2.9,5.7,7.6c-0.6,1.9-1.9,2.9-3.9,3
		c-2.1,0.1-4.1,0.1-6.2,0c-3-0.1-4.4-2-4.4-5.7c0.1-3.2,1.6-4.9,4.6-5C76.2,338.7,77.1,338.8,78.1,338.8z"/>
	<path id="XMLID_1068_" class="st17" d="M99.6,319.4c-1.2,0-2.5,0-3.7,0c-1.4,0-2-0.7-2-2c0-1.5,0.6-2.2,2.1-2.2c2.6,0,5.1,0,7.7,0
		c1.5,0,2.2,0.7,2.2,2.1c0,1.5-0.8,2.1-2.2,2.1C102.2,319.4,100.9,319.4,99.6,319.4z"/>
	<path id="XMLID_1067_" class="st24" d="M51.9,311.4c0.7-0.2,1.4-0.4,2.1-0.4c15.5,0,30.9,0,46.4,0c0.7,0,1.3,0.3,2,0.5
		c-0.6,0.1-1.3,0.2-1.9,0.2c-15.5,0-30.9,0-46.4,0C53.4,311.7,52.7,311.5,51.9,311.4z"/>
	<path id="XMLID_1064_" class="st28" d="M187.8,91.2c4.2,0.3,8.2,0.9,11.9,3.1c1.7,1.1,2.6,2.5,2.2,4.4c-0.5,3-0.9,6-2,8.8
		c-3.6,8.5-17.2,10.5-23.4,3.6c-3-3.4-3.8-12.2-1.1-15.9c0.9-1.2,2.4-2.2,3.9-2.6C182.1,91.8,185,91.6,187.8,91.2z M190.8,103.1
		c0,0.5,0,1,0,1.6l0,0c0.3,0.4,0.6,0.8,0.9,1.1l0,0c-0.3,0.3-0.5,0.9-0.9,0.9c-1.3,0.2-2.6,0.3-4,0.4c1.6,0.4,3.3,0.3,4.9,0.1
		c3.5-0.6,4.2-1.6,3.5-4.9c0.1-0.2,0.2-0.4,0.4-0.7c-0.9-0.3-1.9-0.9-2.8-1c-3-0.3-6-0.4-8.5-0.6c1.6,1,3.8,1.9,6.4,1.5
		c0.5-0.1,1,0.2,1.5,0.3C191.7,102.2,191.3,102.7,190.8,103.1L190.8,103.1z"/>
	<path id="XMLID_1061_" class="st28" d="M230.8,91.2c2.5,0.4,5.1,0.8,7.6,1.2c3.4,0.5,5.3,2.7,5.7,5.9c0.3,2.7,0.3,5.6-0.1,8.3
		c-0.8,4.6-4.7,7.6-9.9,8.4c-9.2,1.4-15.3-2.9-17.1-12.1c-1.4-6.9-0.1-9,6.8-10.7C226,91.7,228.4,91.6,230.8,91.2z M227.2,105.9
		c0.1-0.2,0.2-0.4,0.3-0.6c1-1.4,0.3-2.4-1-3.1c0.7-0.1,1.4-0.3,2.2-0.4c2.1-0.5,4.3-0.9,6.4-1.4c-0.1-0.2-0.1-0.4-0.2-0.7
		c-1.5,0.4-2.9,1-4.4,1.1c-1.6,0.2-3.2-0.2-4.8,0.1c-1.5,0.3-2.8,1.1-4.2,1.7c0.1,0.2,0.1,0.3,0.2,0.5c0.4-0.2,0.8-0.4,1.3-0.5
		c0.2,1.5,0.4,2.9,0.5,4.4c2.7,0.3,5.3,0.6,7.9,0.9c0-0.2,0-0.4,0.1-0.7c-0.8,0-1.6,0-2.3-0.2c-0.8-0.2-1.6-0.6-2.4-1
		C227.1,106.1,227.2,106,227.2,105.9z"/>
	<path id="XMLID_1060_" class="st15" d="M63.1,51.8c6-2.3,12.1-4.6,18.1-6.9c1.4-0.5,2-0.1,2.5,1.2c0.5,1.4-0.1,2-1.3,2.4
		c-6,2.2-12,4.4-17.9,6.6C63.9,54,63.5,52.9,63.1,51.8z"/>
	<path id="XMLID_1059_" class="st27" d="M63.1,51.8c0.4,1.1,0.9,2.3,1.3,3.4c-0.3,1.8-1.2,3.2-2.9,3.8c-2.2,0.8-4.6-0.2-5.5-2.3
		c-1-2.1-0.1-4.5,2.1-5.6c0.5-0.3,1.1-0.4,1.7-0.6c0.8,0.1,1.5,0.3,2.3,0.4C62.3,51.2,62.7,51.5,63.1,51.8z"/>
	<path id="XMLID_1058_" class="st29" d="M61.9,50.9c-0.8-0.1-1.5-0.3-2.3-0.4c2.3-7.1,4.6-14.2,7-21.4c0.8,0.2,1.4,0.4,2.2,0.6
		C66.5,36.9,64.2,43.9,61.9,50.9z"/>
	<path id="XMLID_1057_" class="st27" d="M73.4,30.1c0.8,1.1,1.9,1.9,1.7,2.4c-0.2,0.7-1.2,1.3-1.9,1.9c-0.6-0.6-1.6-1.2-1.6-1.9
		C71.6,31.9,72.6,31.2,73.4,30.1z"/>
	<path id="XMLID_1056_" class="st27" d="M35.5,55.5c-1.3,0.9-2,1.8-2.7,1.7c-0.7-0.1-1.3-1.1-1.9-1.7c0.6-0.6,1.2-1.6,1.9-1.7
		C33.5,53.7,34.2,54.6,35.5,55.5z"/>
	<path id="XMLID_1055_" class="st27" d="M45.3,79.8c-0.8-1.2-1.7-2-1.7-2.6c0.1-0.7,1.1-1.2,1.7-1.8C46,76,47,76.6,47,77.3
		C47.1,77.9,46.1,78.6,45.3,79.8z"/>
	<path id="XMLID_1054_" class="st27" d="M85.9,52.5c0.8,1.2,1.7,2,1.7,2.6c-0.1,0.7-1.2,1.7-1.8,1.7c-0.6,0-1.6-1.1-1.7-1.8
		C84,54.4,85,53.7,85.9,52.5z"/>
	<path id="XMLID_1053_" class="st27" d="M47.6,32.6c-1.3,0.9-2,1.8-2.7,1.7c-0.7-0.1-1.2-1.1-1.8-1.7c0.6-0.6,1.2-1.6,1.9-1.7
		C45.6,30.8,46.3,31.7,47.6,32.6z"/>
	<path id="XMLID_1052_" class="st27" d="M84.3,42c-1.3,0.8-2,1.7-2.6,1.6c-0.7-0.1-1.2-1.1-1.8-1.7c0.6-0.6,1.2-1.6,1.9-1.7
		C82.3,40.1,83.1,41.1,84.3,42z"/>
	<path id="XMLID_1051_" class="st27" d="M38.2,42.4c-1.3,0.8-2.1,1.7-2.7,1.6c-0.7-0.1-1.7-1.1-1.7-1.8c0-0.6,1.1-1.6,1.8-1.6
		C36.3,40.6,37,41.5,38.2,42.4z"/>
	<path id="XMLID_1050_" class="st27" d="M85,67.7c-1.3,0.8-2.1,1.7-2.7,1.6c-0.7-0.1-1.2-1.1-1.8-1.7c0.6-0.6,1.2-1.5,1.9-1.6
		C83.1,65.9,83.8,66.8,85,67.7z"/>
	<path id="XMLID_1049_" class="st27" d="M75.7,77.2c-1.3,0.8-2.1,1.7-2.7,1.6c-0.7-0.1-1.2-1.1-1.8-1.7c0.6-0.6,1.3-1.6,1.9-1.6
		C73.8,75.3,74.5,76.3,75.7,77.2z"/>
	<path id="XMLID_1048_" class="st27" d="M58.8,25.6c0.9,1.2,1.9,1.9,1.8,2.5c0,0.7-1,1.3-1.6,1.9c-0.6-0.6-1.7-1.1-1.8-1.8
		C57.1,27.6,58,26.8,58.8,25.6z"/>
	<path id="XMLID_1047_" class="st27" d="M59.5,84.3c-0.8-1.2-1.8-1.9-1.7-2.6c0.1-0.6,1.1-1.6,1.7-1.6c0.6,0,1.6,1,1.7,1.6
		C61.2,82.4,60.3,83.1,59.5,84.3z"/>
	<path id="XMLID_1046_" class="st27" d="M39.6,68c-1.3,0.7-2.1,1.6-2.7,1.4c-0.7-0.1-1.1-1.2-1.7-1.8c0.6-0.6,1.3-1.5,1.9-1.5
		C37.7,66,38.4,67,39.6,68z"/>
	<path id="XMLID_1045_" class="st21" d="M238.9,237.8c-0.4,0-0.8,0.1-1.1,0.1C238.2,237.8,238.5,237.8,238.9,237.8z"/>
	<path id="XMLID_1044_" class="st24" d="M243.2,261.8c1.6,0,3.2,0,4.7,0c0,0.2,0,0.4,0,0.6c-1.6,0-3.1,0-4.7,0
		C243.3,262.2,243.3,262,243.2,261.8z"/>
	<path id="XMLID_1043_" class="st21" d="M242.6,239.9c0.2,0,0.5,0,0.7,0C243.1,239.9,242.9,239.9,242.6,239.9z"/>
	<path id="XMLID_1042_" class="st21" d="M239.2,240.1l0-0.2c0,0,0.2,0,0.2,0C239.4,240.1,239.3,240.1,239.2,240.1z"/>
	<path id="XMLID_1039_" class="st10" d="M389,213.3c0,5.2-4.4,9.6-9.6,9.5c-5.3,0-9.6-4.4-9.6-9.8c0-5.2,4.4-9.6,9.6-9.5
		C384.8,203.5,389,207.9,389,213.3z M388.2,213.1c0-4.9-3.9-8.8-8.8-8.8c-4.9,0-8.8,3.9-8.8,8.8c0,4.9,3.9,8.8,8.8,8.8
		C384.3,222,388.2,218,388.2,213.1z"/>
	<path id="XMLID_1038_" class="st11" d="M84.6,298.9c2.8,2.5,5.7,5,8.8,7.8C91.3,306.7,84.6,301,84.6,298.9z"/>
	<path id="XMLID_1037_" class="st11" d="M68.3,299.1c2.9,2.5,5.7,5,8.6,7.5c-0.3,0.3-0.5,0.6-0.8,0.9c-2.9-2.5-5.7-5-8.6-7.5
		C67.8,299.7,68.1,299.4,68.3,299.1z"/>
	<path id="XMLID_1036_" class="st11" d="M76.7,299c2.9,2.5,5.7,5,9,7.8C83.4,306.8,76.7,301,76.7,299z"/>
	<path id="XMLID_1035_" class="st11" d="M59.9,299.3c2.9,2.5,5.7,5,8.9,7.8C66.7,307.2,60,301.4,59.9,299.3z"/>
	<path id="XMLID_1034_" class="st19" d="M190.8,103.1c0.5-0.5,0.9-0.9,1.4-1.4c0.5,0,1.1,0,1.6,0c0.2,0,0.3,0,0.5,0l0,0
		c0.3,0.2,0.6,0.3,0.9,0.5l0,0c0.7,3.3,0,4.3-3.5,4.9c-1.6,0.3-3.2,0.3-4.9-0.1c1.3-0.1,2.7-0.2,4-0.4c0.3-0.1,0.6-0.6,0.9-0.9
		c0.4,0,0.9,0,1.4,0C192.2,104.7,191.5,103.9,190.8,103.1z"/>
	<path id="XMLID_1033_" class="st24" d="M193.9,101.8c-0.5,0-1.1,0-1.6,0c-0.5-0.1-1.1-0.4-1.5-0.3c-2.6,0.4-4.8-0.5-6.4-1.5
		c2.5,0.2,5.5,0.3,8.5,0.6c1,0.1,1.9,0.6,2.8,1c-0.1,0.2-0.2,0.4-0.4,0.7l0,0c-0.3-0.2-0.6-0.3-0.9-0.5l0,0c0-0.1-0.1-0.2-0.1-0.3
		C194.1,101.5,194,101.6,193.9,101.8z"/>
	<path id="XMLID_1032_" class="st10" d="M190.8,103.1c0.7,0.8,1.4,1.6,2.3,2.5c-0.5,0-0.9,0-1.4,0l0,0c-0.3-0.4-0.6-0.8-0.9-1.1
		c0,0,0,0,0,0C190.8,104.1,190.8,103.6,190.8,103.1L190.8,103.1z"/>
	<path id="XMLID_1031_" class="st19" d="M190.8,104.6c0.3,0.4,0.6,0.8,0.9,1.1C191.4,105.3,191.1,105,190.8,104.6z"/>
	<path id="XMLID_1030_" class="st19" d="M190.8,103.1c0,0.5,0,1,0,1.6C190.8,104.1,190.8,103.6,190.8,103.1z"/>
	<path id="XMLID_1029_" class="st19" d="M226.6,102.2c1.3,0.7,1.9,1.7,1,3.1l-0.1-0.1c0-0.5,0-0.9,0-1.4c-0.6,0.7-1.3,1.4-2,2.3
		c0.5,0,0.8,0,1,0c0.2,0,0.3,0.1,0.5,0.1c0.8,0.3,1.6,0.8,2.4,1c0.7,0.2,1.5,0.1,2.3,0.2c0,0.2,0,0.4-0.1,0.7
		c-2.6-0.3-5.2-0.6-7.9-0.9c-0.2-1.5-0.4-3-0.5-4.4c0,0,0,0,0,0c0.4-0.2,0.8-0.3,1.1-0.5C225,102.2,225.8,102.2,226.6,102.2z"/>
	<path id="XMLID_1028_" class="st24" d="M226.6,102.2c-0.8,0-1.6,0-2.3,0c-0.4,0.2-0.8,0.3-1.1,0.5c0,0,0,0,0,0
		c-0.4,0.2-0.9,0.4-1.3,0.5c-0.1-0.2-0.1-0.3-0.2-0.5c1.4-0.6,2.7-1.5,4.2-1.7c1.5-0.3,3.2,0.1,4.8-0.1c1.5-0.2,2.9-0.7,4.4-1.1
		c0.1,0.2,0.1,0.4,0.2,0.7c-2.1,0.5-4.2,0.9-6.4,1.4C228,101.9,227.3,102.1,226.6,102.2z"/>
	<path id="XMLID_1027_" class="st24" d="M226.9,106.2c-0.2,0-0.3-0.1-0.5-0.1c0.2-0.1,0.4-0.3,0.6-0.4c0.1,0.1,0.1,0.1,0.2,0.2
		C227.2,106,227.1,106.1,226.9,106.2z"/>
	<path id="XMLID_1026_" class="st24" d="M227.5,105.3c-0.1,0.2-0.2,0.4-0.3,0.6c-0.1-0.1-0.1-0.1-0.2-0.2c0.1-0.2,0.3-0.3,0.4-0.5
		L227.5,105.3z"/>
	<path id="XMLID_1025_" class="st2" d="M388.2,213.1c0,4.9-3.9,8.8-8.8,8.8c-4.9,0-8.8-4-8.8-8.8c0-4.9,3.9-8.8,8.8-8.8
		C384.3,204.3,388.2,208.3,388.2,213.1z"/>
	<path id="XMLID_1024_" class="st28" d="M194.3,101.7c0.3,0.2,0.6,0.3,0.9,0.5C194.9,102,194.6,101.9,194.3,101.7z"/>
	<path id="XMLID_1023_" class="st28" d="M193.9,101.8c0.1-0.1,0.2-0.2,0.4-0.3c0,0.1,0.1,0.2,0.1,0.3
		C194.2,101.8,194,101.8,193.9,101.8z"/>
	<path id="XMLID_1021_" class="st10" d="M227.4,105.2c-0.1,0.2-0.3,0.3-0.4,0.5c-0.2,0.1-0.4,0.3-0.6,0.4c-0.3,0-0.5,0-1,0
		c0.7-0.8,1.3-1.5,2-2.3C227.4,104.3,227.4,104.7,227.4,105.2z"/>
	<path id="XMLID_1020_" class="st28" d="M223.1,102.6c0.4-0.2,0.8-0.3,1.1-0.5C223.8,102.3,223.5,102.5,223.1,102.6z"/>
</g>
</svg>
